<svg width="1600" height="1000" xmlns="http://www.w3.org/2000/svg"><g><path d="M-117.26149259135127,-116.13721447996795L-112.34915804117918,199.0792606305331L-92.25538043305278,128.5107523854822Z" fill="#343939" stroke="#343939"/><path d="M-117.26149259135127,-116.13721447996795L-92.25538043305278,128.5107523854822L39.686907855793834,-117.3578929156065Z" fill="#3d312f" stroke="#3d312f"/><path d="M-117.26149259135127,-116.13721447996795L39.686907855793834,-117.3578929156065L637.9456966649741,-126.98342023417354Z" fill="#353838" stroke="#353838"/><path d="M39.686907855793834,-117.3578929156065L-92.25538043305278,128.5107523854822L128.7085782084614,41.99871721677482Z" fill="#303b3d" stroke="#303b3d"/><path d="M39.686907855793834,-117.3578929156065L128.7085782084614,41.99871721677482L194.56362722441554,-56.748419757932425Z" fill="#303b3c" stroke="#303b3c"/><path d="M39.686907855793834,-117.3578929156065L194.56362722441554,-56.748419757932425L506.74846588633955,-81.15591050125659Z" fill="#2b3f41" stroke="#2b3f41"/><path d="M39.686907855793834,-117.3578929156065L506.74846588633955,-81.15591050125659L637.9456966649741,-126.98342023417354Z" fill="#28474a" stroke="#28474a"/><path d="M194.56362722441554,-56.748419757932425L128.7085782084614,41.99871721677482L194.17058324441314,15.663863411173224Z" fill="#264346" stroke="#264346"/><path d="M194.56362722441554,-56.748419757932425L194.17058324441314,15.663863411173224L387.72377430461347,-21.007002973929048Z" fill="#22464a" stroke="#22464a"/><path d="M194.56362722441554,-56.748419757932425L387.72377430461347,-21.007002973929048L506.74846588633955,-81.15591050125659Z" fill="#214a4e" stroke="#214a4e"/><path d="M387.72377430461347,-21.007002973929048L194.17058324441314,15.663863411173224L315.2424530033022,111.75517684780061Z" fill="#174e55" stroke="#174e55"/><path d="M387.72377430461347,-21.007002973929048L315.2424530033022,111.75517684780061L504.80970315635204,31.10274533741176Z" fill="#15565d" stroke="#15565d"/><path d="M387.72377430461347,-21.007002973929048L504.80970315635204,31.10274533741176L506.74846588633955,-81.15591050125659Z" fill="#1d545a" stroke="#1d545a"/><path d="M506.74846588633955,-81.15591050125659L504.80970315635204,31.10274533741176L623.3351808227599,44.232097528874874Z" fill="#1b5c64" stroke="#1b5c64"/><path d="M506.74846588633955,-81.15591050125659L623.3351808227599,44.232097528874874L637.9456966649741,-126.98342023417354Z" fill="#215960" stroke="#215960"/><path d="M637.9456966649741,-126.98342023417354L623.3351808227599,44.232097528874874L854.2975273355842,-50.96790888346732Z" fill="#20626a" stroke="#20626a"/><path d="M637.9456966649741,-126.98342023417354L854.2975273355842,-50.96790888346732L1034.0071040857583,-39.7325615119189Z" fill="#246870" stroke="#246870"/><path d="M637.9456966649741,-126.98342023417354L1034.0071040857583,-39.7325615119189L1175.8691733889282,-47.78336411342025Z" fill="#246f78" stroke="#246f78"/><path d="M637.9456966649741,-126.98342023417354L1175.8691733889282,-47.78336411342025L1379.3775481916964,-70.6729762069881Z" fill="#257580" stroke="#257580"/><path d="M637.9456966649741,-126.98342023417354L1379.3775481916964,-70.6729762069881L1734.1061258967966,-99.7461648657918Z" fill="#27808c" stroke="#27808c"/><path d="M854.2975273355842,-50.96790888346732L623.3351808227599,44.232097528874874L784.6027559135109,120.27277945540845Z" fill="#156d78" stroke="#156d78"/><path d="M854.2975273355842,-50.96790888346732L784.6027559135109,120.27277945540845L937.3763724043965,71.65099835023284Z" fill="#147481" stroke="#147481"/><path d="M854.2975273355842,-50.96790888346732L937.3763724043965,71.65099835023284L1034.0071040857583,-39.7325615119189Z" fill="#1b7580" stroke="#1b7580"/><path d="M1034.0071040857583,-39.7325615119189L937.3763724043965,71.65099835023284L1101.5208375826478,47.80375421047211Z" fill="#177d8b" stroke="#177d8b"/><path d="M1034.0071040857583,-39.7325615119189L1101.5208375826478,47.80375421047211L1175.8691733889282,-47.78336411342025Z" fill="#1c7e8c" stroke="#1c7e8c"/><path d="M1175.8691733889282,-47.78336411342025L1101.5208375826478,47.80375421047211L1240.7018200401217,92.73922489956021Z" fill="#168896" stroke="#168896"/><path d="M1175.8691733889282,-47.78336411342025L1240.7018200401217,92.73922489956021L1324.9838404543698,-44.118829630315304Z" fill="#1a8a98" stroke="#1a8a98"/><path d="M1175.8691733889282,-47.78336411342025L1324.9838404543698,-44.118829630315304L1379.3775481916964,-70.6729762069881Z" fill="#218794" stroke="#218794"/><path d="M1324.9838404543698,-44.118829630315304L1240.7018200401217,92.73922489956021L1428.1655964441597,73.58988912776113Z" fill="#1593a1" stroke="#1593a1"/><path d="M1324.9838404543698,-44.118829630315304L1428.1655964441597,73.58988912776113L1379.3775481916964,-70.6729762069881Z" fill="#1c919a" stroke="#1c919a"/><path d="M1379.3775481916964,-70.6729762069881L1428.1655964441597,73.58988912776113L1562.3002812825143,-47.73279550485313Z" fill="#1c969a" stroke="#1c969a"/><path d="M1379.3775481916964,-70.6729762069881L1562.3002812825143,-47.73279550485313L1734.1061258967966,-99.7461648657918Z" fill="#249592" stroke="#249592"/><path d="M1562.3002812825143,-47.73279550485313L1428.1655964441597,73.58988912776113L1595.82907050848,45.89487690478563Z" fill="#179e9f" stroke="#179e9f"/><path d="M1562.3002812825143,-47.73279550485313L1595.82907050848,45.89487690478563L1734.1061258967966,-99.7461648657918Z" fill="#1f9897" stroke="#1f9897"/><path d="M1734.1061258967966,-99.7461648657918L1595.82907050848,45.89487690478563L1725.4629362281412,115.24719525128603Z" fill="#189e9e" stroke="#189e9e"/><path d="M1734.1061258967966,-99.7461648657918L1725.4629362281412,115.24719525128603L1773.0913437064737,257.599345324561Z" fill="#0ea5a7" stroke="#0ea5a7"/><path d="M1734.1061258967966,-99.7461648657918L1773.0913437064737,257.599345324561L1782.9058120027184,326.61825181916356Z" fill="#05abb0" stroke="#05abb0"/><path d="M-92.25538043305278,128.5107523854822L-112.34915804117918,199.0792606305331L44.20238954946399,256.4390515163541Z" fill="#1f484d" stroke="#1f484d"/><path d="M-92.25538043305278,128.5107523854822L44.20238954946399,256.4390515163541L128.7085782084614,41.99871721677482Z" fill="#20484c" stroke="#20484c"/><path d="M128.7085782084614,41.99871721677482L44.20238954946399,256.4390515163541L248.34950840100646,284.44857847876847Z" fill="#0f545c" stroke="#0f545c"/><path d="M128.7085782084614,41.99871721677482L248.34950840100646,284.44857847876847L315.2424530033022,111.75517684780061Z" fill="#0f545d" stroke="#0f545d"/><path d="M128.7085782084614,41.99871721677482L315.2424530033022,111.75517684780061L194.17058324441314,15.663863411173224Z" fill="#1b4b50" stroke="#1b4b50"/><path d="M315.2424530033022,111.75517684780061L248.34950840100646,284.44857847876847L433.66196553222835,219.87541562877595Z" fill="#00616d" stroke="#00616d"/><path d="M315.2424530033022,111.75517684780061L433.66196553222835,219.87541562877595L504.80970315635204,31.10274533741176Z" fill="#0b5f69" stroke="#0b5f69"/><path d="M504.80970315635204,31.10274533741176L433.66196553222835,219.87541562877595L506.73026740550995,227.77335159480572Z" fill="#066773" stroke="#066773"/><path d="M504.80970315635204,31.10274533741176L506.73026740550995,227.77335159480572L623.3351808227599,44.232097528874874Z" fill="#0d6671" stroke="#0d6671"/><path d="M623.3351808227599,44.232097528874874L506.73026740550995,227.77335159480572L703.3534011058509,279.52589283697307Z" fill="#027280" stroke="#027280"/><path d="M623.3351808227599,44.232097528874874L703.3534011058509,279.52589283697307L784.6027559135109,120.27277945540845Z" fill="#077583" stroke="#077583"/><path d="M784.6027559135109,120.27277945540845L703.3534011058509,279.52589283697307L827.635395526886,284.23526189289987Z" fill="#008192" stroke="#008192"/><path d="M784.6027559135109,120.27277945540845L827.635395526886,284.23526189289987L986.658923830837,170.82211517728865Z" fill="#018394" stroke="#018394"/><path d="M784.6027559135109,120.27277945540845L986.658923830837,170.82211517728865L937.3763724043965,71.65099835023284Z" fill="#0b7f8e" stroke="#0b7f8e"/><path d="M937.3763724043965,71.65099835023284L986.658923830837,170.82211517728865L1101.5208375826478,47.80375421047211Z" fill="#0e8392" stroke="#0e8392"/><path d="M1101.5208375826478,47.80375421047211L986.658923830837,170.82211517728865L1130.7041833084077,170.97952416166663Z" fill="#098a9b" stroke="#098a9b"/><path d="M1101.5208375826478,47.80375421047211L1130.7041833084077,170.97952416166663L1240.7018200401217,92.73922489956021Z" fill="#0d8e9e" stroke="#0d8e9e"/><path d="M1240.7018200401217,92.73922489956021L1130.7041833084077,170.97952416166663L1276.5053036995232,249.85264646820724Z" fill="#0498ab" stroke="#0498ab"/><path d="M1240.7018200401217,92.73922489956021L1276.5053036995232,249.85264646820724L1428.1655964441597,73.58988912776113Z" fill="#089cad" stroke="#089cad"/><path d="M1428.1655964441597,73.58988912776113L1276.5053036995232,249.85264646820724L1465.8284472953528,240.9100864827633Z" fill="#02a6b4" stroke="#02a6b4"/><path d="M1428.1655964441597,73.58988912776113L1465.8284472953528,240.9100864827633L1595.82907050848,45.89487690478563Z" fill="#0ba6ab" stroke="#0ba6ab"/><path d="M1595.82907050848,45.89487690478563L1465.8284472953528,240.9100864827633L1567.1675482671708,269.153075767681Z" fill="#02aeb3" stroke="#02aeb3"/><path d="M1595.82907050848,45.89487690478563L1567.1675482671708,269.153075767681L1725.4629362281412,115.24719525128603Z" fill="#08aaae" stroke="#08aaae"/><path d="M1725.4629362281412,115.24719525128603L1567.1675482671708,269.153075767681L1773.0913437064737,257.599345324561Z" fill="#00b1b7" stroke="#00b1b7"/><path d="M-112.34915804117918,199.0792606305331L-99.16759961284697,963.4840897936374L-85.642871260643,551.8730256333947Z" fill="#226d77" stroke="#226d77"/><path d="M-112.34915804117918,199.0792606305331L-85.642871260643,551.8730256333947L-56.735994815826416,399.5113139692694Z" fill="#215b62" stroke="#215b62"/><path d="M-112.34915804117918,199.0792606305331L-56.735994815826416,399.5113139692694L44.20238954946399,256.4390515163541Z" fill="#1e5359" stroke="#1e5359"/><path d="M44.20238954946399,256.4390515163541L-56.735994815826416,399.5113139692694L17.152961567044258,412.727379379794Z" fill="#1a5d66" stroke="#1a5d66"/><path d="M44.20238954946399,256.4390515163541L17.152961567044258,412.727379379794L211.99925397522748,410.8671728800982Z" fill="#13636e" stroke="#13636e"/><path d="M44.20238954946399,256.4390515163541L211.99925397522748,410.8671728800982L248.34950840100646,284.44857847876847Z" fill="#0d636e" stroke="#0d636e"/><path d="M248.34950840100646,284.44857847876847L211.99925397522748,410.8671728800982L340.29914947226644,369.373074201867Z" fill="#056e7b" stroke="#056e7b"/><path d="M248.34950840100646,284.44857847876847L340.29914947226644,369.373074201867L433.66196553222835,219.87541562877595Z" fill="#006b78" stroke="#006b78"/><path d="M433.66196553222835,219.87541562877595L340.29914947226644,369.373074201867L519.5114673580974,400.49181810580194Z" fill="#007685" stroke="#007685"/><path d="M433.66196553222835,219.87541562877595L519.5114673580974,400.49181810580194L506.73026740550995,227.77335159480572Z" fill="#007483" stroke="#007483"/><path d="M506.73026740550995,227.77335159480572L519.5114673580974,400.49181810580194L631.0206822026521,390.4238218534738Z" fill="#007f90" stroke="#007f90"/><path d="M506.73026740550995,227.77335159480572L631.0206822026521,390.4238218534738L703.3534011058509,279.52589283697307Z" fill="#007f8f" stroke="#007f8f"/><path d="M703.3534011058509,279.52589283697307L631.0206822026521,390.4238218534738L773.4646355453879,422.8912527859211Z" fill="#008c9e" stroke="#008c9e"/><path d="M703.3534011058509,279.52589283697307L773.4646355453879,422.8912527859211L827.635395526886,284.23526189289987Z" fill="#008c9e" stroke="#008c9e"/><path d="M827.635395526886,284.23526189289987L773.4646355453879,422.8912527859211L933.9028236921877,380.91950624249876Z" fill="#0095a8" stroke="#0095a8"/><path d="M827.635395526886,284.23526189289987L933.9028236921877,380.91950624249876L986.658923830837,170.82211517728865Z" fill="#0090a3" stroke="#0090a3"/><path d="M986.658923830837,170.82211517728865L933.9028236921877,380.91950624249876L1130.7041833084077,170.97952416166663Z" fill="#0092a5" stroke="#0092a5"/><path d="M1130.7041833084077,170.97952416166663L933.9028236921877,380.91950624249876L1149.3131820112467,420.1521293632686Z" fill="#009fb4" stroke="#009fb4"/><path d="M1130.7041833084077,170.97952416166663L1149.3131820112467,420.1521293632686L1240.593504840508,358.83851777762175Z" fill="#00a5bb" stroke="#00a5bb"/><path d="M1130.7041833084077,170.97952416166663L1240.593504840508,358.83851777762175L1276.5053036995232,249.85264646820724Z" fill="#00a1b6" stroke="#00a1b6"/><path d="M1276.5053036995232,249.85264646820724L1240.593504840508,358.83851777762175L1410.7589288894087,424.19144343584776Z" fill="#00b1c8" stroke="#00b1c8"/><path d="M1276.5053036995232,249.85264646820724L1410.7589288894087,424.19144343584776L1465.8284472953528,240.9100864827633Z" fill="#00b2c3" stroke="#00b2c3"/><path d="M1465.8284472953528,240.9100864827633L1410.7589288894087,424.19144343584776L1540.0939656514674,345.69553138688207Z" fill="#00bcc7" stroke="#00bcc7"/><path d="M1465.8284472953528,240.9100864827633L1540.0939656514674,345.69553138688207L1567.1675482671708,269.153075767681Z" fill="#00b9c0" stroke="#00b9c0"/><path d="M1567.1675482671708,269.153075767681L1540.0939656514674,345.69553138688207L1782.9058120027184,326.61825181916356Z" fill="#00bcc4" stroke="#00bcc4"/><path d="M1567.1675482671708,269.153075767681L1782.9058120027184,326.61825181916356L1773.0913437064737,257.599345324561Z" fill="#00b9c0" stroke="#00b9c0"/><path d="M-56.735994815826416,399.5113139692694L-85.642871260643,551.8730256333947L17.152961567044258,412.727379379794Z" fill="#1e656e" stroke="#1e656e"/><path d="M17.152961567044258,412.727379379794L-85.642871260643,551.8730256333947L91.02512564510107,547.725583864376Z" fill="#1a6d78" stroke="#1a6d78"/><path d="M17.152961567044258,412.727379379794L91.02512564510107,547.725583864376L184.1371327266097,486.63592759519815Z" fill="#12707d" stroke="#12707d"/><path d="M17.152961567044258,412.727379379794L184.1371327266097,486.63592759519815L211.99925397522748,410.8671728800982Z" fill="#0f6e7a" stroke="#0f6e7a"/><path d="M211.99925397522748,410.8671728800982L184.1371327266097,486.63592759519815L390.2538251504302,483.35569434799254Z" fill="#057887" stroke="#057887"/><path d="M211.99925397522748,410.8671728800982L390.2538251504302,483.35569434799254L340.29914947226644,369.373074201867Z" fill="#017787" stroke="#017787"/><path d="M340.29914947226644,369.373074201867L390.2538251504302,483.35569434799254L519.5114673580974,400.49181810580194Z" fill="#007f8e" stroke="#007f8e"/><path d="M519.5114673580974,400.49181810580194L390.2538251504302,483.35569434799254L477.6195836160332,515.1396985910833Z" fill="#008698" stroke="#008698"/><path d="M519.5114673580974,400.49181810580194L477.6195836160332,515.1396985910833L631.0206822026521,390.4238218534738Z" fill="#00899a" stroke="#00899a"/><path d="M631.0206822026521,390.4238218534738L477.6195836160332,515.1396985910833L709.0860921889544,575.7017439510673Z" fill="#0093a7" stroke="#0093a7"/><path d="M631.0206822026521,390.4238218534738L709.0860921889544,575.7017439510673L773.6717441305518,523.5795778501779Z" fill="#009aae" stroke="#009aae"/><path d="M631.0206822026521,390.4238218534738L773.6717441305518,523.5795778501779L773.4646355453879,422.8912527859211Z" fill="#0096a9" stroke="#0096a9"/><path d="M773.4646355453879,422.8912527859211L773.6717441305518,523.5795778501779L933.3412601239979,565.2992107160389Z" fill="#00a2b8" stroke="#00a2b8"/><path d="M773.4646355453879,422.8912527859211L933.3412601239979,565.2992107160389L933.9028236921877,380.91950624249876Z" fill="#00a1b6" stroke="#00a1b6"/><path d="M933.9028236921877,380.91950624249876L933.3412601239979,565.2992107160389L1149.3131820112467,420.1521293632686Z" fill="#00a9bf" stroke="#00a9bf"/><path d="M1149.3131820112467,420.1521293632686L933.3412601239979,565.2992107160389L1172.755280714482,520.0943499896675Z" fill="#00b3ca" stroke="#00b3ca"/><path d="M1149.3131820112467,420.1521293632686L1172.755280714482,520.0943499896675L1275.292999399826,493.77924643456936Z" fill="#00b8d0" stroke="#00b8d0"/><path d="M1149.3131820112467,420.1521293632686L1275.292999399826,493.77924643456936L1240.593504840508,358.83851777762175Z" fill="#00b4cc" stroke="#00b4cc"/><path d="M1240.593504840508,358.83851777762175L1275.292999399826,493.77924643456936L1410.7589288894087,424.19144343584776Z" fill="#00bad2" stroke="#00bad2"/><path d="M1410.7589288894087,424.19144343584776L1275.292999399826,493.77924643456936L1414.7508856002241,550.3136789146811Z" fill="#00c5d9" stroke="#00c5d9"/><path d="M1410.7589288894087,424.19144343584776L1414.7508856002241,550.3136789146811L1524.1839097067714,524.9830287136137Z" fill="#00cbda" stroke="#00cbda"/><path d="M1410.7589288894087,424.19144343584776L1524.1839097067714,524.9830287136137L1540.0939656514674,345.69553138688207Z" fill="#00c7d2" stroke="#00c7d2"/><path d="M1540.0939656514674,345.69553138688207L1524.1839097067714,524.9830287136137L1752.971253907308,579.304154952988Z" fill="#00ced8" stroke="#00ced8"/><path d="M1540.0939656514674,345.69553138688207L1752.971253907308,579.304154952988L1782.9058120027184,326.61825181916356Z" fill="#00c7d1" stroke="#00c7d1"/><path d="M1782.9058120027184,326.61825181916356L1752.971253907308,579.304154952988L1776.0078458301723,711.0292361676693Z" fill="#00d4df" stroke="#00d4df"/><path d="M1782.9058120027184,326.61825181916356L1776.0078458301723,711.0292361676693L1782.139688367024,1093.2715432718396Z" fill="#00e6f3" stroke="#00e6f3"/><path d="M-85.642871260643,551.8730256333947L-99.16759961284697,963.4840897936374L-27.473937990143895,836.5457061119378Z" fill="#208693" stroke="#208693"/><path d="M-85.642871260643,551.8730256333947L-27.473937990143895,836.5457061119378L-40.993115147575736,624.8605350404978Z" fill="#1e7b87" stroke="#1e7b87"/><path d="M-85.642871260643,551.8730256333947L-40.993115147575736,624.8605350404978L91.02512564510107,547.725583864376Z" fill="#1b737e" stroke="#1b737e"/><path d="M91.02512564510107,547.725583864376L-40.993115147575736,624.8605350404978L97.18540074303746,705.3242602664977Z" fill="#167c89" stroke="#167c89"/><path d="M91.02512564510107,547.725583864376L97.18540074303746,705.3242602664977L200.13413750566542,615.3766827564687Z" fill="#10818f" stroke="#10818f"/><path d="M91.02512564510107,547.725583864376L200.13413750566542,615.3766827564687L184.1371327266097,486.63592759519815Z" fill="#0d7b89" stroke="#0d7b89"/><path d="M184.1371327266097,486.63592759519815L200.13413750566542,615.3766827564687L343.86397613212466,627.1524864155799Z" fill="#078393" stroke="#078393"/><path d="M184.1371327266097,486.63592759519815L343.86397613212466,627.1524864155799L390.2538251504302,483.35569434799254Z" fill="#018293" stroke="#018293"/><path d="M390.2538251504302,483.35569434799254L343.86397613212466,627.1524864155799L477.6195836160332,515.1396985910833Z" fill="#008a9c" stroke="#008a9c"/><path d="M477.6195836160332,515.1396985910833L343.86397613212466,627.1524864155799L506.05947034433484,626.4571612235159Z" fill="#0091a5" stroke="#0091a5"/><path d="M477.6195836160332,515.1396985910833L506.05947034433484,626.4571612235159L709.0860921889544,575.7017439510673Z" fill="#0098ac" stroke="#0098ac"/><path d="M709.0860921889544,575.7017439510673L506.05947034433484,626.4571612235159L698.5497418418527,672.6218698080629Z" fill="#00a3b8" stroke="#00a3b8"/><path d="M709.0860921889544,575.7017439510673L698.5497418418527,672.6218698080629L825.2343446854502,620.3413245733827Z" fill="#00a9bf" stroke="#00a9bf"/><path d="M709.0860921889544,575.7017439510673L825.2343446854502,620.3413245733827L773.6717441305518,523.5795778501779Z" fill="#00a6bc" stroke="#00a6bc"/><path d="M773.6717441305518,523.5795778501779L825.2343446854502,620.3413245733827L933.3412601239979,565.2992107160389Z" fill="#00aac0" stroke="#00aac0"/><path d="M933.3412601239979,565.2992107160389L825.2343446854502,620.3413245733827L971.2972111813724,669.2119363602251Z" fill="#00b3cb" stroke="#00b3cb"/><path d="M933.3412601239979,565.2992107160389L971.2972111813724,669.2119363602251L1172.755280714482,520.0943499896675Z" fill="#00b7d0" stroke="#00b7d0"/><path d="M1172.755280714482,520.0943499896675L971.2972111813724,669.2119363602251L1183.7732540722936,652.6763807237148Z" fill="#00c0d9" stroke="#00c0d9"/><path d="M1172.755280714482,520.0943499896675L1183.7732540722936,652.6763807237148L1257.6679594628513,643.9146919827908Z" fill="#00c5df" stroke="#00c5df"/><path d="M1172.755280714482,520.0943499896675L1257.6679594628513,643.9146919827908L1275.292999399826,493.77924643456936Z" fill="#00c2db" stroke="#00c2db"/><path d="M1275.292999399826,493.77924643456936L1257.6679594628513,643.9146919827908L1414.7508856002241,550.3136789146811Z" fill="#00c9e1" stroke="#00c9e1"/><path d="M1414.7508856002241,550.3136789146811L1257.6679594628513,643.9146919827908L1365.7926312368363,677.2913167532533Z" fill="#00d1e9" stroke="#00d1e9"/><path d="M1414.7508856002241,550.3136789146811L1365.7926312368363,677.2913167532533L1552.25661277771,659.8396155796945Z" fill="#00d8e9" stroke="#00d8e9"/><path d="M1414.7508856002241,550.3136789146811L1552.25661277771,659.8396155796945L1524.1839097067714,524.9830287136137Z" fill="#00d6e3" stroke="#00d6e3"/><path d="M1524.1839097067714,524.9830287136137L1552.25661277771,659.8396155796945L1752.971253907308,579.304154952988Z" fill="#00d9e4" stroke="#00d9e4"/><path d="M1752.971253907308,579.304154952988L1552.25661277771,659.8396155796945L1776.0078458301723,711.0292361676693Z" fill="#00dfec" stroke="#00dfec"/><path d="M-40.993115147575736,624.8605350404978L-27.473937990143895,836.5457061119378L97.18540074303746,705.3242602664977Z" fill="#198492" stroke="#198492"/><path d="M97.18540074303746,705.3242602664977L-27.473937990143895,836.5457061119378L103.10790882445872,838.4846014436334Z" fill="#168f9e" stroke="#168f9e"/><path d="M97.18540074303746,705.3242602664977L103.10790882445872,838.4846014436334L280.6286743283272,805.7261734642088Z" fill="#0d94a5" stroke="#0d94a5"/><path d="M97.18540074303746,705.3242602664977L280.6286743283272,805.7261734642088L200.13413750566542,615.3766827564687Z" fill="#0b8d9f" stroke="#0b8d9f"/><path d="M200.13413750566542,615.3766827564687L280.6286743283272,805.7261734642088L343.86397613212466,627.1524864155799Z" fill="#0490a2" stroke="#0490a2"/><path d="M343.86397613212466,627.1524864155799L280.6286743283272,805.7261734642088L385.7976305298507,829.8073783423752Z" fill="#009bb0" stroke="#009bb0"/><path d="M343.86397613212466,627.1524864155799L385.7976305298507,829.8073783423752L506.05947034433484,626.4571612235159Z" fill="#009aaf" stroke="#009aaf"/><path d="M506.05947034433484,626.4571612235159L385.7976305298507,829.8073783423752L534.253509119153,830.7018892932683Z" fill="#00a6bc" stroke="#00a6bc"/><path d="M506.05947034433484,626.4571612235159L534.253509119153,830.7018892932683L698.5497418418527,672.6218698080629Z" fill="#00a8bd" stroke="#00a8bd"/><path d="M698.5497418418527,672.6218698080629L534.253509119153,830.7018892932683L691.7476385459304,858.0732316710055Z" fill="#00b4cc" stroke="#00b4cc"/><path d="M698.5497418418527,672.6218698080629L691.7476385459304,858.0732316710055L860.3696085512638,822.3340853769332Z" fill="#00bbd3" stroke="#00bbd3"/><path d="M698.5497418418527,672.6218698080629L860.3696085512638,822.3340853769332L825.2343446854502,620.3413245733827Z" fill="#00b5cd" stroke="#00b5cd"/><path d="M825.2343446854502,620.3413245733827L860.3696085512638,822.3340853769332L971.2972111813724,669.2119363602251Z" fill="#00bbd3" stroke="#00bbd3"/><path d="M971.2972111813724,669.2119363602251L860.3696085512638,822.3340853769332L1005.4880199115723,771.0435926914215Z" fill="#00c4de" stroke="#00c4de"/><path d="M971.2972111813724,669.2119363602251L1005.4880199115723,771.0435926914215L1104.4758450519294,786.2974801193923Z" fill="#00c8e2" stroke="#00c8e2"/><path d="M971.2972111813724,669.2119363602251L1104.4758450519294,786.2974801193923L1183.7732540722936,652.6763807237148Z" fill="#00c8e2" stroke="#00c8e2"/><path d="M1183.7732540722936,652.6763807237148L1104.4758450519294,786.2974801193923L1226.0354089736938,794.0435320883989Z" fill="#00d2ee" stroke="#00d2ee"/><path d="M1183.7732540722936,652.6763807237148L1226.0354089736938,794.0435320883989L1257.6679594628513,643.9146919827908Z" fill="#00d0eb" stroke="#00d0eb"/><path d="M1257.6679594628513,643.9146919827908L1226.0354089736938,794.0435320883989L1365.7926312368363,677.2913167532533Z" fill="#00d5f1" stroke="#00d5f1"/><path d="M1365.7926312368363,677.2913167532533L1226.0354089736938,794.0435320883989L1419.0916589275002,861.3486348744482Z" fill="#00e1fb" stroke="#00e1fb"/><path d="M1365.7926312368363,677.2913167532533L1419.0916589275002,861.3486348744482L1552.25661277771,659.8396155796945Z" fill="#00e3f6" stroke="#00e3f6"/><path d="M1552.25661277771,659.8396155796945L1419.0916589275002,861.3486348744482L1581.9572319556028,882.0823246054351Z" fill="#00effe" stroke="#00effe"/><path d="M1552.25661277771,659.8396155796945L1581.9572319556028,882.0823246054351L1750.2425028942525,808.0618780106306Z" fill="#00edfc" stroke="#00edfc"/><path d="M1552.25661277771,659.8396155796945L1750.2425028942525,808.0618780106306L1776.0078458301723,711.0292361676693Z" fill="#00e7f5" stroke="#00e7f5"/><path d="M1776.0078458301723,711.0292361676693L1750.2425028942525,808.0618780106306L1782.139688367024,1093.2715432718396Z" fill="#00f7ff" stroke="#00f7ff"/><path d="M-27.473937990143895,836.5457061119378L-99.16759961284697,963.4840897936374L108.74676626175642,955.3495846129954Z" fill="#1b989b" stroke="#1b989b"/><path d="M-27.473937990143895,836.5457061119378L108.74676626175642,955.3495846129954L103.10790882445872,838.4846014436334Z" fill="#1598a1" stroke="#1598a1"/><path d="M103.10790882445872,838.4846014436334L108.74676626175642,955.3495846129954L210.62912662513554,927.6410842593759Z" fill="#0fa0a7" stroke="#0fa0a7"/><path d="M103.10790882445872,838.4846014436334L210.62912662513554,927.6410842593759L280.6286743283272,805.7261734642088Z" fill="#0a9eac" stroke="#0a9eac"/><path d="M280.6286743283272,805.7261734642088L210.62912662513554,927.6410842593759L414.2504505626857,929.2380373366177Z" fill="#02a8b4" stroke="#02a8b4"/><path d="M280.6286743283272,805.7261734642088L414.2504505626857,929.2380373366177L385.7976305298507,829.8073783423752Z" fill="#00a8b8" stroke="#00a8b8"/><path d="M385.7976305298507,829.8073783423752L414.2504505626857,929.2380373366177L534.253509119153,830.7018892932683Z" fill="#00afbf" stroke="#00afbf"/><path d="M534.253509119153,830.7018892932683L414.2504505626857,929.2380373366177L475.32887055538595,986.9532249402255Z" fill="#00b7c2" stroke="#00b7c2"/><path d="M534.253509119153,830.7018892932683L475.32887055538595,986.9532249402255L697.3321362677962,939.347058897838Z" fill="#00bec9" stroke="#00bec9"/><path d="M534.253509119153,830.7018892932683L697.3321362677962,939.347058897838L691.7476385459304,858.0732316710055Z" fill="#00becf" stroke="#00becf"/><path d="M691.7476385459304,858.0732316710055L697.3321362677962,939.347058897838L860.3696085512638,822.3340853769332Z" fill="#00c5d7" stroke="#00c5d7"/><path d="M860.3696085512638,822.3340853769332L697.3321362677962,939.347058897838L816.9895764905959,999.2653737589717Z" fill="#00ccda" stroke="#00ccda"/><path d="M860.3696085512638,822.3340853769332L816.9895764905959,999.2653737589717L986.3396825361997,935.7710556685925Z" fill="#00d2e1" stroke="#00d2e1"/><path d="M860.3696085512638,822.3340853769332L986.3396825361997,935.7710556685925L1005.4880199115723,771.0435926914215Z" fill="#00cee5" stroke="#00cee5"/><path d="M1005.4880199115723,771.0435926914215L986.3396825361997,935.7710556685925L1104.4758450519294,786.2974801193923Z" fill="#00d2eb" stroke="#00d2eb"/><path d="M1104.4758450519294,786.2974801193923L986.3396825361997,935.7710556685925L1168.7676421366632,1034.5170185063034Z" fill="#00dfef" stroke="#00dfef"/><path d="M1104.4758450519294,786.2974801193923L1168.7676421366632,1034.5170185063034L1226.0354089736938,794.0435320883989Z" fill="#00dff5" stroke="#00dff5"/><path d="M1226.0354089736938,794.0435320883989L1168.7676421366632,1034.5170185063034L1290.7921928912401,957.5521318428218Z" fill="#00eafa" stroke="#00eafa"/><path d="M1226.0354089736938,794.0435320883989L1290.7921928912401,957.5521318428218L1419.0916589275002,861.3486348744482Z" fill="#00e9ff" stroke="#00e9ff"/><path d="M1419.0916589275002,861.3486348744482L1290.7921928912401,957.5521318428218L1456.6340992692858,982.1695928089321Z" fill="#00f5ff" stroke="#00f5ff"/><path d="M1419.0916589275002,861.3486348744482L1456.6340992692858,982.1695928089321L1581.9572319556028,882.0823246054351Z" fill="#00f9ff" stroke="#00f9ff"/><path d="M1581.9572319556028,882.0823246054351L1456.6340992692858,982.1695928089321L1551.9946307782084,976.5822274424136Z" fill="#00ffff" stroke="#00ffff"/><path d="M1581.9572319556028,882.0823246054351L1551.9946307782084,976.5822274424136L1723.7715930864215,981.2741901632398Z" fill="#00ffff" stroke="#00ffff"/><path d="M1581.9572319556028,882.0823246054351L1723.7715930864215,981.2741901632398L1750.2425028942525,808.0618780106306Z" fill="#00f9ff" stroke="#00f9ff"/><path d="M1750.2425028942525,808.0618780106306L1723.7715930864215,981.2741901632398L1782.139688367024,1093.2715432718396Z" fill="#00ffff" stroke="#00ffff"/><path d="M-99.16759961284697,963.4840897936374L-28.55063907802105,1134.439013293013L108.74676626175642,955.3495846129954Z" fill="#1b9b9b" stroke="#1b9b9b"/><path d="M108.74676626175642,955.3495846129954L-28.55063907802105,1134.439013293013L111.65752773173153,1117.3255905043334Z" fill="#15a0a1" stroke="#15a0a1"/><path d="M108.74676626175642,955.3495846129954L111.65752773173153,1117.3255905043334L272.39910431206226,1095.6979253143072Z" fill="#0da6a9" stroke="#0da6a9"/><path d="M108.74676626175642,955.3495846129954L272.39910431206226,1095.6979253143072L210.62912662513554,927.6410842593759Z" fill="#0aa8ab" stroke="#0aa8ab"/><path d="M210.62912662513554,927.6410842593759L272.39910431206226,1095.6979253143072L414.2504505626857,929.2380373366177Z" fill="#02aeb4" stroke="#02aeb4"/><path d="M414.2504505626857,929.2380373366177L272.39910431206226,1095.6979253143072L402.77244770899415,1124.1233035270125Z" fill="#00b2b9" stroke="#00b2b9"/><path d="M414.2504505626857,929.2380373366177L402.77244770899415,1124.1233035270125L475.32887055538595,986.9532249402255Z" fill="#00b7be" stroke="#00b7be"/><path d="M475.32887055538595,986.9532249402255L402.77244770899415,1124.1233035270125L482.6782179996371,1173.3418572507799Z" fill="#00b9c0" stroke="#00b9c0"/><path d="M475.32887055538595,986.9532249402255L482.6782179996371,1173.3418572507799L707.352835368365,1066.3873398955911Z" fill="#00c0c8" stroke="#00c0c8"/><path d="M475.32887055538595,986.9532249402255L707.352835368365,1066.3873398955911L697.3321362677962,939.347058897838Z" fill="#00c5ce" stroke="#00c5ce"/><path d="M697.3321362677962,939.347058897838L707.352835368365,1066.3873398955911L816.9895764905959,999.2653737589717Z" fill="#00ccd6" stroke="#00ccd6"/><path d="M816.9895764905959,999.2653737589717L707.352835368365,1066.3873398955911L799.1097546927631,1177.0747878961265Z" fill="#00ced8" stroke="#00ced8"/><path d="M816.9895764905959,999.2653737589717L799.1097546927631,1177.0747878961265L921.0947195626795,1087.34419955872Z" fill="#00d3de" stroke="#00d3de"/><path d="M816.9895764905959,999.2653737589717L921.0947195626795,1087.34419955872L986.3396825361997,935.7710556685925Z" fill="#00d7e2" stroke="#00d7e2"/><path d="M986.3396825361997,935.7710556685925L921.0947195626795,1087.34419955872L1091.7386914417148,1117.537145856768Z" fill="#00dce9" stroke="#00dce9"/><path d="M986.3396825361997,935.7710556685925L1091.7386914417148,1117.537145856768L1168.7676421366632,1034.5170185063034Z" fill="#00e2ef" stroke="#00e2ef"/><path d="M1168.7676421366632,1034.5170185063034L1091.7386914417148,1117.537145856768L1224.1323293186724,1138.9953536074609Z" fill="#00e7f5" stroke="#00e7f5"/><path d="M1168.7676421366632,1034.5170185063034L1224.1323293186724,1138.9953536074609L1290.7921928912401,957.5521318428218Z" fill="#00ecfa" stroke="#00ecfa"/><path d="M1290.7921928912401,957.5521318428218L1224.1323293186724,1138.9953536074609L1433.6304649338126,1157.2500307951123Z" fill="#00f2ff" stroke="#00f2ff"/><path d="M1290.7921928912401,957.5521318428218L1433.6304649338126,1157.2500307951123L1456.6340992692858,982.1695928089321Z" fill="#00f7ff" stroke="#00f7ff"/><path d="M1456.6340992692858,982.1695928089321L1433.6304649338126,1157.2500307951123L1551.6177435591817,1081.0493727307767Z" fill="#00fdff" stroke="#00fdff"/><path d="M1456.6340992692858,982.1695928089321L1551.6177435591817,1081.0493727307767L1551.9946307782084,976.5822274424136Z" fill="#00ffff" stroke="#00ffff"/><path d="M1551.9946307782084,976.5822274424136L1551.6177435591817,1081.0493727307767L1723.7715930864215,981.2741901632398Z" fill="#00ffff" stroke="#00ffff"/><path d="M1723.7715930864215,981.2741901632398L1551.6177435591817,1081.0493727307767L1782.139688367024,1093.2715432718396Z" fill="#00ffff" stroke="#00ffff"/><path d="M-28.55063907802105,1134.439013293013L482.6782179996371,1173.3418572507799L111.65752773173153,1117.3255905043334Z" fill="#0ba7ab" stroke="#0ba7ab"/><path d="M111.65752773173153,1117.3255905043334L482.6782179996371,1173.3418572507799L272.39910431206226,1095.6979253143072Z" fill="#03adb3" stroke="#03adb3"/><path d="M272.39910431206226,1095.6979253143072L482.6782179996371,1173.3418572507799L402.77244770899415,1124.1233035270125Z" fill="#00b4bb" stroke="#00b4bb"/><path d="M482.6782179996371,1173.3418572507799L799.1097546927631,1177.0747878961265L707.352835368365,1066.3873398955911Z" fill="#00c7d0" stroke="#00c7d0"/><path d="M799.1097546927631,1177.0747878961265L1433.6304649338126,1157.2500307951123L1224.1323293186724,1138.9953536074609Z" fill="#00e7f4" stroke="#00e7f4"/><path d="M799.1097546927631,1177.0747878961265L1224.1323293186724,1138.9953536074609L1091.7386914417148,1117.537145856768Z" fill="#00dfec" stroke="#00dfec"/><path d="M799.1097546927631,1177.0747878961265L1091.7386914417148,1117.537145856768L921.0947195626795,1087.34419955872Z" fill="#00d8e4" stroke="#00d8e4"/><path d="M1433.6304649338126,1157.2500307951123L1782.139688367024,1093.2715432718396L1551.6177435591817,1081.0493727307767Z" fill="#00ffff" stroke="#00ffff"/></g></svg>