<svg width="1600" height="1000" xmlns="http://www.w3.org/2000/svg"><g><path d="M-117.07844568416476,-122.21153874881566L-113.88194862753153,551.9055610243231L-85.64556151628494,96.01571280509233Z" fill="#e9e9e9" stroke="#e9e9e9"/><path d="M-117.07844568416476,-122.21153874881566L-85.64556151628494,96.01571280509233L56.69293097220361,-66.59754311665893Z" fill="#fdfdfd" stroke="#fdfdfd"/><path d="M-117.07844568416476,-122.21153874881566L56.69293097220361,-66.59754311665893L265.88538179174066,-106.45075452513993Z" fill="#f7f7f7" stroke="#f7f7f7"/><path d="M-117.07844568416476,-122.21153874881566L265.88538179174066,-106.45075452513993L1022.7352503407747,-94.6117493044585Z" fill="#e2e2e2" stroke="#e2e2e2"/><path d="M-117.07844568416476,-122.21153874881566L1022.7352503407747,-94.6117493044585L1526.1470130365342,-90.29250771738589Z" fill="#c1c1c1" stroke="#c1c1c1"/><path d="M56.69293097220361,-66.59754311665893L-85.64556151628494,96.01571280509233L96.12459185533226,39.02412034571171Z" fill="#f3f3f3" stroke="#f3f3f3"/><path d="M56.69293097220361,-66.59754311665893L96.12459185533226,39.02412034571171L265.88538179174066,-106.45075452513993Z" fill="#f2f2f2" stroke="#f2f2f2"/><path d="M265.88538179174066,-106.45075452513993L96.12459185533226,39.02412034571171L207.8926997166127,75.54885026067495Z" fill="#eaeaea" stroke="#eaeaea"/><path d="M265.88538179174066,-106.45075452513993L207.8926997166127,75.54885026067495L360.25265933945775,-58.175786174833775Z" fill="#e8e8e8" stroke="#e8e8e8"/><path d="M265.88538179174066,-106.45075452513993L360.25265933945775,-58.175786174833775L517.6437810435891,-91.28745286725461Z" fill="#e3e3e3" stroke="#e3e3e3"/><path d="M265.88538179174066,-106.45075452513993L517.6437810435891,-91.28745286725461L1022.7352503407747,-94.6117493044585Z" fill="#d2d2d2" stroke="#d2d2d2"/><path d="M360.25265933945775,-58.175786174833775L207.8926997166127,75.54885026067495L431.1595356557518,35.187415704131126Z" fill="#e0e0e0" stroke="#e0e0e0"/><path d="M360.25265933945775,-58.175786174833775L431.1595356557518,35.187415704131126L517.6437810435891,-91.28745286725461Z" fill="#e0e0e0" stroke="#e0e0e0"/><path d="M517.6437810435891,-91.28745286725461L431.1595356557518,35.187415704131126L501.34460714645684,65.58764895424247Z" fill="#d8d8d8" stroke="#d8d8d8"/><path d="M517.6437810435891,-91.28745286725461L501.34460714645684,65.58764895424247L639.6401104331017,-20.35951802507043Z" fill="#d4d4d4" stroke="#d4d4d4"/><path d="M517.6437810435891,-91.28745286725461L639.6401104331017,-20.35951802507043L844.3201291747391,-58.58016349375248Z" fill="#cccccc" stroke="#cccccc"/><path d="M517.6437810435891,-91.28745286725461L844.3201291747391,-58.58016349375248L1022.7352503407747,-94.6117493044585Z" fill="#c2c2c2" stroke="#c2c2c2"/><path d="M639.6401104331017,-20.35951802507043L501.34460714645684,65.58764895424247L633.1224379409105,91.46549927070737Z" fill="#cacaca" stroke="#cacaca"/><path d="M639.6401104331017,-20.35951802507043L633.1224379409105,91.46549927070737L852.1419361140579,97.03527644276619Z" fill="#bfbfbf" stroke="#bfbfbf"/><path d="M639.6401104331017,-20.35951802507043L852.1419361140579,97.03527644276619L844.3201291747391,-58.58016349375248Z" fill="#bfbfbf" stroke="#bfbfbf"/><path d="M844.3201291747391,-58.58016349375248L852.1419361140579,97.03527644276619L923.2469930313528,103.13196829520166Z" fill="#b3b3b3" stroke="#b3b3b3"/><path d="M844.3201291747391,-58.58016349375248L923.2469930313528,103.13196829520166L1022.7352503407747,-94.6117493044585Z" fill="#b6b6b6" stroke="#b6b6b6"/><path d="M1022.7352503407747,-94.6117493044585L923.2469930313528,103.13196829520166L1097.164751747623,-25.3620841819793Z" fill="#afafaf" stroke="#afafaf"/><path d="M1022.7352503407747,-94.6117493044585L1097.164751747623,-25.3620841819793L1326.806660676375,-72.84053368493915Z" fill="#a8a8a8" stroke="#a8a8a8"/><path d="M1022.7352503407747,-94.6117493044585L1326.806660676375,-72.84053368493915L1526.1470130365342,-90.29250771738589Z" fill="#9a9a9a" stroke="#9a9a9a"/><path d="M1097.164751747623,-25.3620841819793L923.2469930313528,103.13196829520166L1075.8003711607307,99.94400169700384Z" fill="#a7a7a7" stroke="#a7a7a7"/><path d="M1097.164751747623,-25.3620841819793L1075.8003711607307,99.94400169700384L1294.6331781707704,44.605439845472574Z" fill="#9f9f9f" stroke="#9f9f9f"/><path d="M1097.164751747623,-25.3620841819793L1294.6331781707704,44.605439845472574L1326.806660676375,-72.84053368493915Z" fill="#9d9d9d" stroke="#9d9d9d"/><path d="M1326.806660676375,-72.84053368493915L1294.6331781707704,44.605439845472574L1390.0898535735905,76.5861149970442Z" fill="#909090" stroke="#909090"/><path d="M1326.806660676375,-72.84053368493915L1390.0898535735905,76.5861149970442L1424.1723735071719,-61.07361598871648Z" fill="#8f8f8f" stroke="#8f8f8f"/><path d="M1326.806660676375,-72.84053368493915L1424.1723735071719,-61.07361598871648L1526.1470130365342,-90.29250771738589Z" fill="#8d8d8d" stroke="#8d8d8d"/><path d="M1424.1723735071719,-61.07361598871648L1390.0898535735905,76.5861149970442L1517.3695579078048,127.94104808941483Z" fill="#828282" stroke="#828282"/><path d="M1424.1723735071719,-61.07361598871648L1517.3695579078048,127.94104808941483L1526.1470130365342,-90.29250771738589Z" fill="#848484" stroke="#848484"/><path d="M1526.1470130365342,-90.29250771738589L1517.3695579078048,127.94104808941483L1759.690568977967,-24.38815246336162Z" fill="#7b7b7b" stroke="#7b7b7b"/><path d="M1759.690568977967,-24.38815246336162L1517.3695579078048,127.94104808941483L1768.2868468668312,33.99398912675679Z" fill="#777777" stroke="#777777"/><path d="M-85.64556151628494,96.01571280509233L-113.88194862753153,551.9055610243231L-77.42162480950356,244.22147512435913Z" fill="#dddddd" stroke="#dddddd"/><path d="M-85.64556151628494,96.01571280509233L-77.42162480950356,244.22147512435913L68.73144770041108,283.94400763325393Z" fill="#e4e4e4" stroke="#e4e4e4"/><path d="M-85.64556151628494,96.01571280509233L68.73144770041108,283.94400763325393L96.12459185533226,39.02412034571171Z" fill="#e7e7e7" stroke="#e7e7e7"/><path d="M96.12459185533226,39.02412034571171L68.73144770041108,283.94400763325393L194.2163778282702,187.77100944891572Z" fill="#dedede" stroke="#dedede"/><path d="M96.12459185533226,39.02412034571171L194.2163778282702,187.77100944891572L207.8926997166127,75.54885026067495Z" fill="#e2e2e2" stroke="#e2e2e2"/><path d="M207.8926997166127,75.54885026067495L194.2163778282702,187.77100944891572L377.55919586867094,173.3803381305188Z" fill="#d7d7d7" stroke="#d7d7d7"/><path d="M207.8926997166127,75.54885026067495L377.55919586867094,173.3803381305188L431.1595356557518,35.187415704131126Z" fill="#d7d7d7" stroke="#d7d7d7"/><path d="M431.1595356557518,35.187415704131126L377.55919586867094,173.3803381305188L501.34460714645684,65.58764895424247Z" fill="#d2d2d2" stroke="#d2d2d2"/><path d="M501.34460714645684,65.58764895424247L377.55919586867094,173.3803381305188L470.1966170221567,203.58901547268033Z" fill="#cbcbcb" stroke="#cbcbcb"/><path d="M501.34460714645684,65.58764895424247L470.1966170221567,203.58901547268033L633.1224379409105,91.46549927070737Z" fill="#c7c7c7" stroke="#c7c7c7"/><path d="M633.1224379409105,91.46549927070737L470.1966170221567,203.58901547268033L728.5142286680639,191.00917140953243Z" fill="#bcbcbc" stroke="#bcbcbc"/><path d="M633.1224379409105,91.46549927070737L728.5142286680639,191.00917140953243L852.1419361140579,97.03527644276619Z" fill="#b5b5b5" stroke="#b5b5b5"/><path d="M852.1419361140579,97.03527644276619L728.5142286680639,191.00917140953243L846.3308675587177,234.5389480702579Z" fill="#ababab" stroke="#ababab"/><path d="M852.1419361140579,97.03527644276619L846.3308675587177,234.5389480702579L924.8901561554521,175.70568289607763Z" fill="#a7a7a7" stroke="#a7a7a7"/><path d="M852.1419361140579,97.03527644276619L924.8901561554521,175.70568289607763L923.2469930313528,103.13196829520166Z" fill="#a9a9a9" stroke="#a9a9a9"/><path d="M923.2469930313528,103.13196829520166L924.8901561554521,175.70568289607763L1075.8003711607307,99.94400169700384Z" fill="#a3a3a3" stroke="#a3a3a3"/><path d="M1075.8003711607307,99.94400169700384L924.8901561554521,175.70568289607763L1068.266828628257,218.59656429849565Z" fill="#9c9c9c" stroke="#9c9c9c"/><path d="M1075.8003711607307,99.94400169700384L1068.266828628257,218.59656429849565L1236.8110942002386,188.4524949733168Z" fill="#949494" stroke="#949494"/><path d="M1075.8003711607307,99.94400169700384L1236.8110942002386,188.4524949733168L1294.6331781707704,44.605439845472574Z" fill="#939393" stroke="#939393"/><path d="M1294.6331781707704,44.605439845472574L1236.8110942002386,188.4524949733168L1390.0898535735905,76.5861149970442Z" fill="#8a8a8a" stroke="#8a8a8a"/><path d="M1390.0898535735905,76.5861149970442L1236.8110942002386,188.4524949733168L1392.1911458484828,202.1865221299231Z" fill="#818181" stroke="#818181"/><path d="M1390.0898535735905,76.5861149970442L1392.1911458484828,202.1865221299231L1517.3695579078048,127.94104808941483Z" fill="#7a7a7a" stroke="#7a7a7a"/><path d="M1517.3695579078048,127.94104808941483L1392.1911458484828,202.1865221299231L1565.1569075323641,240.52373916842043Z" fill="#6f6f6f" stroke="#6f6f6f"/><path d="M1517.3695579078048,127.94104808941483L1565.1569075323641,240.52373916842043L1723.2196452934295,210.58556199073792Z" fill="#686868" stroke="#686868"/><path d="M1517.3695579078048,127.94104808941483L1723.2196452934295,210.58556199073792L1768.2868468668312,33.99398912675679Z" fill="#6f6f6f" stroke="#6f6f6f"/><path d="M1768.2868468668312,33.99398912675679L1723.2196452934295,210.58556199073792L1754.9368319660425,584.1475200187415Z" fill="#606060" stroke="#606060"/><path d="M1768.2868468668312,33.99398912675679L1754.9368319660425,584.1475200187415L1765.4616340901703,1020.8404407184571Z" fill="#3d3d3d" stroke="#3d3d3d"/><path d="M-77.42162480950356,244.22147512435913L-113.88194862753153,551.9055610243231L-80.38905867375433,404.81978818774223Z" fill="#cfcfcf" stroke="#cfcfcf"/><path d="M-77.42162480950356,244.22147512435913L-80.38905867375433,404.81978818774223L47.79861398041248,375.18593894317746Z" fill="#d5d5d5" stroke="#d5d5d5"/><path d="M-77.42162480950356,244.22147512435913L47.79861398041248,375.18593894317746L68.73144770041108,283.94400763325393Z" fill="#d7d7d7" stroke="#d7d7d7"/><path d="M68.73144770041108,283.94400763325393L47.79861398041248,375.18593894317746L253.48954950459301,418.2201656140387Z" fill="#c8c8c8" stroke="#c8c8c8"/><path d="M68.73144770041108,283.94400763325393L253.48954950459301,418.2201656140387L194.2163778282702,187.77100944891572Z" fill="#cdcdcd" stroke="#cdcdcd"/><path d="M194.2163778282702,187.77100944891572L253.48954950459301,418.2201656140387L409.19879922643304,354.9506227578968Z" fill="#c3c3c3" stroke="#c3c3c3"/><path d="M194.2163778282702,187.77100944891572L409.19879922643304,354.9506227578968L377.55919586867094,173.3803381305188Z" fill="#cacaca" stroke="#cacaca"/><path d="M377.55919586867094,173.3803381305188L409.19879922643304,354.9506227578968L470.1966170221567,203.58901547268033Z" fill="#c4c4c4" stroke="#c4c4c4"/><path d="M470.1966170221567,203.58901547268033L409.19879922643304,354.9506227578968L536.7231128923595,389.77481248788536Z" fill="#b8b8b8" stroke="#b8b8b8"/><path d="M470.1966170221567,203.58901547268033L536.7231128923595,389.77481248788536L674.5580304600298,338.804779574275Z" fill="#b1b1b1" stroke="#b1b1b1"/><path d="M470.1966170221567,203.58901547268033L674.5580304600298,338.804779574275L728.5142286680639,191.00917140953243Z" fill="#b3b3b3" stroke="#b3b3b3"/><path d="M728.5142286680639,191.00917140953243L674.5580304600298,338.804779574275L846.3308675587177,234.5389480702579Z" fill="#a8a8a8" stroke="#a8a8a8"/><path d="M846.3308675587177,234.5389480702579L674.5580304600298,338.804779574275L866.8160391692072,321.67596467770636Z" fill="#a0a0a0" stroke="#a0a0a0"/><path d="M846.3308675587177,234.5389480702579L866.8160391692072,321.67596467770636L924.8901561554521,175.70568289607763Z" fill="#9f9f9f" stroke="#9f9f9f"/><path d="M924.8901561554521,175.70568289607763L866.8160391692072,321.67596467770636L980.9422868303955,350.86975048296154Z" fill="#989898" stroke="#989898"/><path d="M924.8901561554521,175.70568289607763L980.9422868303955,350.86975048296154L1068.266828628257,218.59656429849565Z" fill="#969696" stroke="#969696"/><path d="M1068.266828628257,218.59656429849565L980.9422868303955,350.86975048296154L1069.0396594069898,335.25280142202973Z" fill="#8d8d8d" stroke="#8d8d8d"/><path d="M1068.266828628257,218.59656429849565L1069.0396594069898,335.25280142202973L1236.8110942002386,188.4524949733168Z" fill="#8d8d8d" stroke="#8d8d8d"/><path d="M1236.8110942002386,188.4524949733168L1069.0396594069898,335.25280142202973L1311.14433914423,345.1288982760161Z" fill="#818181" stroke="#818181"/><path d="M1236.8110942002386,188.4524949733168L1311.14433914423,345.1288982760161L1392.1911458484828,202.1865221299231Z" fill="#7b7b7b" stroke="#7b7b7b"/><path d="M1392.1911458484828,202.1865221299231L1311.14433914423,345.1288982760161L1483.9287592750043,396.5067581925541Z" fill="#6b6b6b" stroke="#6b6b6b"/><path d="M1392.1911458484828,202.1865221299231L1483.9287592750043,396.5067581925541L1565.1569075323641,240.52373916842043Z" fill="#676767" stroke="#676767"/><path d="M1565.1569075323641,240.52373916842043L1483.9287592750043,396.5067581925541L1582.4968335125595,338.3091851044446Z" fill="#5b5b5b" stroke="#5b5b5b"/><path d="M1565.1569075323641,240.52373916842043L1582.4968335125595,338.3091851044446L1701.6778579261154,335.970003772527Z" fill="#5c5c5c" stroke="#5c5c5c"/><path d="M1565.1569075323641,240.52373916842043L1701.6778579261154,335.970003772527L1723.2196452934295,210.58556199073792Z" fill="#616161" stroke="#616161"/><path d="M1723.2196452934295,210.58556199073792L1701.6778579261154,335.970003772527L1754.9368319660425,584.1475200187415Z" fill="#525252" stroke="#525252"/><path d="M-80.38905867375433,404.81978818774223L-113.88194862753153,551.9055610243231L85.41015417315066,562.862698584795Z" fill="#c0c0c0" stroke="#c0c0c0"/><path d="M-80.38905867375433,404.81978818774223L85.41015417315066,562.862698584795L47.79861398041248,375.18593894317746Z" fill="#c3c3c3" stroke="#c3c3c3"/><path d="M47.79861398041248,375.18593894317746L85.41015417315066,562.862698584795L186.98689277283847,472.84696251153946Z" fill="#bbbbbb" stroke="#bbbbbb"/><path d="M47.79861398041248,375.18593894317746L186.98689277283847,472.84696251153946L253.48954950459301,418.2201656140387Z" fill="#bdbdbd" stroke="#bdbdbd"/><path d="M253.48954950459301,418.2201656140387L186.98689277283847,472.84696251153946L412.35654685646296,561.4377101417631Z" fill="#adadad" stroke="#adadad"/><path d="M253.48954950459301,418.2201656140387L412.35654685646296,561.4377101417631L409.19879922643304,354.9506227578968Z" fill="#aeaeae" stroke="#aeaeae"/><path d="M409.19879922643304,354.9506227578968L412.35654685646296,561.4377101417631L470.0458971038461,511.05496569536626Z" fill="#a5a5a5" stroke="#a5a5a5"/><path d="M409.19879922643304,354.9506227578968L470.0458971038461,511.05496569536626L536.7231128923595,389.77481248788536Z" fill="#aaaaaa" stroke="#aaaaaa"/><path d="M536.7231128923595,389.77481248788536L470.0458971038461,511.05496569536626L733.7112645339221,562.801943924278Z" fill="#989898" stroke="#989898"/><path d="M536.7231128923595,389.77481248788536L733.7112645339221,562.801943924278L674.5580304600298,338.804779574275Z" fill="#999999" stroke="#999999"/><path d="M674.5580304600298,338.804779574275L733.7112645339221,562.801943924278L862.8532070294023,533.8706588745117Z" fill="#8b8b8b" stroke="#8b8b8b"/><path d="M674.5580304600298,338.804779574275L862.8532070294023,533.8706588745117L866.8160391692072,321.67596467770636Z" fill="#919191" stroke="#919191"/><path d="M866.8160391692072,321.67596467770636L862.8532070294023,533.8706588745117L957.0127608720213,524.3403886444867Z" fill="#828282" stroke="#828282"/><path d="M866.8160391692072,321.67596467770636L957.0127608720213,524.3403886444867L980.9422868303955,350.86975048296154Z" fill="#878787" stroke="#878787"/><path d="M980.9422868303955,350.86975048296154L957.0127608720213,524.3403886444867L1069.0396594069898,335.25280142202973Z" fill="#828282" stroke="#828282"/><path d="M1069.0396594069898,335.25280142202973L957.0127608720213,524.3403886444867L1178.0656905658543,579.3745713774115Z" fill="#737373" stroke="#737373"/><path d="M1069.0396594069898,335.25280142202973L1178.0656905658543,579.3745713774115L1267.4407474603504,525.248047336936Z" fill="#6b6b6b" stroke="#6b6b6b"/><path d="M1069.0396594069898,335.25280142202973L1267.4407474603504,525.248047336936L1311.14433914423,345.1288982760161Z" fill="#717171" stroke="#717171"/><path d="M1311.14433914423,345.1288982760161L1267.4407474603504,525.248047336936L1396.5690081194043,472.5846221577376Z" fill="#606060" stroke="#606060"/><path d="M1311.14433914423,345.1288982760161L1396.5690081194043,472.5846221577376L1483.9287592750043,396.5067581925541Z" fill="#5f5f5f" stroke="#5f5f5f"/><path d="M1483.9287592750043,396.5067581925541L1396.5690081194043,472.5846221577376L1484.3789333291352,639.8036018852144Z" fill="#4d4d4d" stroke="#4d4d4d"/><path d="M1483.9287592750043,396.5067581925541L1484.3789333291352,639.8036018852144L1630.4097953438759,465.7460183277726Z" fill="#454545" stroke="#454545"/><path d="M1483.9287592750043,396.5067581925541L1630.4097953438759,465.7460183277726L1582.4968335125595,338.3091851044446Z" fill="#4f4f4f" stroke="#4f4f4f"/><path d="M1582.4968335125595,338.3091851044446L1630.4097953438759,465.7460183277726L1701.6778579261154,335.970003772527Z" fill="#525252" stroke="#525252"/><path d="M1701.6778579261154,335.970003772527L1630.4097953438759,465.7460183277726L1754.9368319660425,584.1475200187415Z" fill="#474747" stroke="#474747"/><path d="M-113.88194862753153,551.9055610243231L-101.75402794964612,687.3254289384931L85.41015417315066,562.862698584795Z" fill="#b5b5b5" stroke="#b5b5b5"/><path d="M85.41015417315066,562.862698584795L-101.75402794964612,687.3254289384931L55.87119751609862,710.4324145428836Z" fill="#ababab" stroke="#ababab"/><path d="M85.41015417315066,562.862698584795L55.87119751609862,710.4324145428836L265.38038472644985,689.8980254866183Z" fill="#a3a3a3" stroke="#a3a3a3"/><path d="M85.41015417315066,562.862698584795L265.38038472644985,689.8980254866183L186.98689277283847,472.84696251153946Z" fill="#a9a9a9" stroke="#a9a9a9"/><path d="M186.98689277283847,472.84696251153946L265.38038472644985,689.8980254866183L412.35654685646296,561.4377101417631Z" fill="#a2a2a2" stroke="#a2a2a2"/><path d="M412.35654685646296,561.4377101417631L265.38038472644985,689.8980254866183L344.29191341623664,677.3048984259367Z" fill="#979797" stroke="#979797"/><path d="M412.35654685646296,561.4377101417631L344.29191341623664,677.3048984259367L504.41667314618826,627.8419115021825Z" fill="#959595" stroke="#959595"/><path d="M412.35654685646296,561.4377101417631L504.41667314618826,627.8419115021825L470.0458971038461,511.05496569536626Z" fill="#989898" stroke="#989898"/><path d="M470.0458971038461,511.05496569536626L504.41667314618826,627.8419115021825L733.7112645339221,562.801943924278Z" fill="#8f8f8f" stroke="#8f8f8f"/><path d="M733.7112645339221,562.801943924278L504.41667314618826,627.8419115021825L672.9927088413388,694.2083251476288Z" fill="#828282" stroke="#828282"/><path d="M733.7112645339221,562.801943924278L672.9927088413388,694.2083251476288L824.6349263750017,725.3128345124424Z" fill="#767676" stroke="#767676"/><path d="M733.7112645339221,562.801943924278L824.6349263750017,725.3128345124424L862.8532070294023,533.8706588745117Z" fill="#777777" stroke="#777777"/><path d="M862.8532070294023,533.8706588745117L824.6349263750017,725.3128345124424L1020.7858111336827,704.6092433016747Z" fill="#6b6b6b" stroke="#6b6b6b"/><path d="M862.8532070294023,533.8706588745117L1020.7858111336827,704.6092433016747L957.0127608720213,524.3403886444867Z" fill="#6f6f6f" stroke="#6f6f6f"/><path d="M957.0127608720213,524.3403886444867L1020.7858111336827,704.6092433016747L1104.2982775624841,654.0876645594835Z" fill="#656565" stroke="#656565"/><path d="M957.0127608720213,524.3403886444867L1104.2982775624841,654.0876645594835L1178.0656905658543,579.3745713774115Z" fill="#666666" stroke="#666666"/><path d="M1178.0656905658543,579.3745713774115L1104.2982775624841,654.0876645594835L1232.291734367609,617.9356544371694Z" fill="#5a5a5a" stroke="#5a5a5a"/><path d="M1178.0656905658543,579.3745713774115L1232.291734367609,617.9356544371694L1267.4407474603504,525.248047336936Z" fill="#5a5a5a" stroke="#5a5a5a"/><path d="M1267.4407474603504,525.248047336936L1232.291734367609,617.9356544371694L1484.3789333291352,639.8036018852144Z" fill="#4e4e4e" stroke="#4e4e4e"/><path d="M1267.4407474603504,525.248047336936L1484.3789333291352,639.8036018852144L1396.5690081194043,472.5846221577376Z" fill="#4e4e4e" stroke="#4e4e4e"/><path d="M1630.4097953438759,465.7460183277726L1484.3789333291352,639.8036018852144L1542.0353276934475,688.5602148994803Z" fill="#373737" stroke="#373737"/><path d="M1630.4097953438759,465.7460183277726L1542.0353276934475,688.5602148994803L1695.4133006930351,633.7549466919154Z" fill="#373737" stroke="#373737"/><path d="M1630.4097953438759,465.7460183277726L1695.4133006930351,633.7549466919154L1754.9368319660425,584.1475200187415Z" fill="#3b3b3b" stroke="#3b3b3b"/><path d="M1754.9368319660425,584.1475200187415L1695.4133006930351,633.7549466919154L1735.090579278767,884.6635486464947Z" fill="#2b2b2b" stroke="#2b2b2b"/><path d="M1754.9368319660425,584.1475200187415L1735.090579278767,884.6635486464947L1765.4616340901703,1020.8404407184571Z" fill="#171717" stroke="#171717"/><path d="M-101.75402794964612,687.3254289384931L-37.83133436925709,1135.9562702849507L-31.888644425198436,963.8180312421173Z" fill="#878787" stroke="#878787"/><path d="M-101.75402794964612,687.3254289384931L-31.888644425198436,963.8180312421173L-40.85242269560695,804.5515936799347Z" fill="#989898" stroke="#989898"/><path d="M-101.75402794964612,687.3254289384931L-40.85242269560695,804.5515936799347L55.87119751609862,710.4324145428836Z" fill="#a4a4a4" stroke="#a4a4a4"/><path d="M55.87119751609862,710.4324145428836L-40.85242269560695,804.5515936799347L112.67584796994925,845.5779900122434Z" fill="#969696" stroke="#969696"/><path d="M55.87119751609862,710.4324145428836L112.67584796994925,845.5779900122434L182.92825436219573,783.188099116087Z" fill="#939393" stroke="#939393"/><path d="M55.87119751609862,710.4324145428836L182.92825436219573,783.188099116087L265.38038472644985,689.8980254866183Z" fill="#989898" stroke="#989898"/><path d="M265.38038472644985,689.8980254866183L182.92825436219573,783.188099116087L386.8789275549352,797.7107271552086Z" fill="#8c8c8c" stroke="#8c8c8c"/><path d="M265.38038472644985,689.8980254866183L386.8789275549352,797.7107271552086L344.29191341623664,677.3048984259367Z" fill="#8e8e8e" stroke="#8e8e8e"/><path d="M344.29191341623664,677.3048984259367L386.8789275549352,797.7107271552086L504.41667314618826,627.8419115021825Z" fill="#8c8c8c" stroke="#8c8c8c"/><path d="M504.41667314618826,627.8419115021825L386.8789275549352,797.7107271552086L474.15748497471213,821.8911977112293Z" fill="#828282" stroke="#828282"/><path d="M504.41667314618826,627.8419115021825L474.15748497471213,821.8911977112293L624.4060524366796,785.5808663461357Z" fill="#7c7c7c" stroke="#7c7c7c"/><path d="M504.41667314618826,627.8419115021825L624.4060524366796,785.5808663461357L672.9927088413388,694.2083251476288Z" fill="#7d7d7d" stroke="#7d7d7d"/><path d="M672.9927088413388,694.2083251476288L624.4060524366796,785.5808663461357L824.6349263750017,725.3128345124424Z" fill="#6f6f6f" stroke="#6f6f6f"/><path d="M824.6349263750017,725.3128345124424L624.4060524366796,785.5808663461357L775.3251631837338,922.8092214278877Z" fill="#606060" stroke="#606060"/><path d="M824.6349263750017,725.3128345124424L775.3251631837338,922.8092214278877L851.7772120703012,859.6818100567907Z" fill="#575757" stroke="#575757"/><path d="M824.6349263750017,725.3128345124424L851.7772120703012,859.6818100567907L990.0467869732529,862.8710507322103Z" fill="#555555" stroke="#555555"/><path d="M824.6349263750017,725.3128345124424L990.0467869732529,862.8710507322103L1020.7858111336827,704.6092433016747Z" fill="#595959" stroke="#595959"/><path d="M1020.7858111336827,704.6092433016747L990.0467869732529,862.8710507322103L1102.1150793973356,849.9685606732965Z" fill="#4b4b4b" stroke="#4b4b4b"/><path d="M1020.7858111336827,704.6092433016747L1102.1150793973356,849.9685606732965L1104.2982775624841,654.0876645594835Z" fill="#545454" stroke="#545454"/><path d="M1104.2982775624841,654.0876645594835L1102.1150793973356,849.9685606732965L1290.3942890558392,857.3462974000722Z" fill="#454545" stroke="#454545"/><path d="M1104.2982775624841,654.0876645594835L1290.3942890558392,857.3462974000722L1232.291734367609,617.9356544371694Z" fill="#4c4c4c" stroke="#4c4c4c"/><path d="M1232.291734367609,617.9356544371694L1290.3942890558392,857.3462974000722L1376.8234940897673,834.6235258877277Z" fill="#3a3a3a" stroke="#3a3a3a"/><path d="M1232.291734367609,617.9356544371694L1376.8234940897673,834.6235258877277L1484.3789333291352,639.8036018852144Z" fill="#3e3e3e" stroke="#3e3e3e"/><path d="M1484.3789333291352,639.8036018852144L1376.8234940897673,834.6235258877277L1542.0353276934475,688.5602148994803Z" fill="#313131" stroke="#313131"/><path d="M1542.0353276934475,688.5602148994803L1376.8234940897673,834.6235258877277L1604.6183783747256,841.5098425280303Z" fill="#232323" stroke="#232323"/><path d="M1542.0353276934475,688.5602148994803L1604.6183783747256,841.5098425280303L1695.4133006930351,633.7549466919154Z" fill="#282828" stroke="#282828"/><path d="M1695.4133006930351,633.7549466919154L1604.6183783747256,841.5098425280303L1735.090579278767,884.6635486464947Z" fill="#1e1e1e" stroke="#1e1e1e"/><path d="M-40.85242269560695,804.5515936799347L-31.888644425198436,963.8180312421173L112.67584796994925,845.5779900122434Z" fill="#8b8b8b" stroke="#8b8b8b"/><path d="M112.67584796994925,845.5779900122434L-31.888644425198436,963.8180312421173L130.4778540506959,965.2219841815531Z" fill="#7f7f7f" stroke="#7f7f7f"/><path d="M112.67584796994925,845.5779900122434L130.4778540506959,965.2219841815531L182.92825436219573,783.188099116087Z" fill="#848484" stroke="#848484"/><path d="M182.92825436219573,783.188099116087L130.4778540506959,965.2219841815531L323.1505381129682,947.5757754407823Z" fill="#7a7a7a" stroke="#7a7a7a"/><path d="M182.92825436219573,783.188099116087L323.1505381129682,947.5757754407823L386.8789275549352,797.7107271552086Z" fill="#7e7e7e" stroke="#7e7e7e"/><path d="M386.8789275549352,797.7107271552086L323.1505381129682,947.5757754407823L474.15748497471213,821.8911977112293Z" fill="#757575" stroke="#757575"/><path d="M474.15748497471213,821.8911977112293L323.1505381129682,947.5757754407823L500.433746566996,986.5282836835831Z" fill="#696969" stroke="#696969"/><path d="M474.15748497471213,821.8911977112293L500.433746566996,986.5282836835831L624.4060524366796,785.5808663461357Z" fill="#6a6a6a" stroke="#6a6a6a"/><path d="M624.4060524366796,785.5808663461357L500.433746566996,986.5282836835831L708.4181622974575,939.1795836109668Z" fill="#5d5d5d" stroke="#5d5d5d"/><path d="M624.4060524366796,785.5808663461357L708.4181622974575,939.1795836109668L775.3251631837338,922.8092214278877Z" fill="#585858" stroke="#585858"/><path d="M851.7772120703012,859.6818100567907L775.3251631837338,922.8092214278877L830.7988572120667,1100.3609366342425Z" fill="#434343" stroke="#434343"/><path d="M851.7772120703012,859.6818100567907L830.7988572120667,1100.3609366342425L1026.4675326179713,998.8783212471753Z" fill="#3b3b3b" stroke="#3b3b3b"/><path d="M851.7772120703012,859.6818100567907L1026.4675326179713,998.8783212471753L990.0467869732529,862.8710507322103Z" fill="#414141" stroke="#414141"/><path d="M990.0467869732529,862.8710507322103L1026.4675326179713,998.8783212471753L1102.1150793973356,849.9685606732965Z" fill="#3c3c3c" stroke="#3c3c3c"/><path d="M1102.1150793973356,849.9685606732965L1026.4675326179713,998.8783212471753L1139.6438000444323,968.908408312127Z" fill="#333333" stroke="#333333"/><path d="M1102.1150793973356,849.9685606732965L1139.6438000444323,968.908408312127L1290.3942890558392,857.3462974000722Z" fill="#333333" stroke="#333333"/><path d="M1290.3942890558392,857.3462974000722L1139.6438000444323,968.908408312127L1218.1779645569623,1021.1584632005543Z" fill="#262626" stroke="#262626"/><path d="M1290.3942890558392,857.3462974000722L1218.1779645569623,1021.1584632005543L1376.8854866176844,926.0746318101883Z" fill="#212121" stroke="#212121"/><path d="M1290.3942890558392,857.3462974000722L1376.8854866176844,926.0746318101883L1376.8234940897673,834.6235258877277Z" fill="#252525" stroke="#252525"/><path d="M1376.8234940897673,834.6235258877277L1376.8854866176844,926.0746318101883L1604.6183783747256,841.5098425280303Z" fill="#1c1c1c" stroke="#1c1c1c"/><path d="M1604.6183783747256,841.5098425280303L1376.8854866176844,926.0746318101883L1557.5147472135723,1005.9529109951109Z" fill="#0d0d0d" stroke="#0d0d0d"/><path d="M1604.6183783747256,841.5098425280303L1557.5147472135723,1005.9529109951109L1735.090579278767,884.6635486464947Z" fill="#0a0a0a" stroke="#0a0a0a"/><path d="M1735.090579278767,884.6635486464947L1557.5147472135723,1005.9529109951109L1765.4616340901703,1020.8404407184571Z" fill="#010101" stroke="#010101"/><path d="M-31.888644425198436,963.8180312421173L-37.83133436925709,1135.9562702849507L126.46571022458375,1133.0263445153832Z" fill="#7b7b7b" stroke="#7b7b7b"/><path d="M-31.888644425198436,963.8180312421173L126.46571022458375,1133.0263445153832L130.4778540506959,965.2219841815531Z" fill="#777777" stroke="#777777"/><path d="M130.4778540506959,965.2219841815531L126.46571022458375,1133.0263445153832L233.4146267361939,1012.4748010933399Z" fill="#717171" stroke="#717171"/><path d="M130.4778540506959,965.2219841815531L233.4146267361939,1012.4748010933399L323.1505381129682,947.5757754407823Z" fill="#6d6d6d" stroke="#6d6d6d"/><path d="M233.4146267361939,1012.4748010933399L126.46571022458375,1133.0263445153832L266.2729409057647,1106.7228095512837Z" fill="#6e6e6e" stroke="#6e6e6e"/><path d="M233.4146267361939,1012.4748010933399L266.2729409057647,1106.7228095512837L323.1505381129682,947.5757754407823Z" fill="#6a6a6a" stroke="#6a6a6a"/><path d="M323.1505381129682,947.5757754407823L266.2729409057647,1106.7228095512837L376.87436224892735,1165.0505241192877Z" fill="#676767" stroke="#676767"/><path d="M323.1505381129682,947.5757754407823L376.87436224892735,1165.0505241192877L500.433746566996,986.5282836835831Z" fill="#626262" stroke="#626262"/><path d="M500.433746566996,986.5282836835831L376.87436224892735,1165.0505241192877L474.48760567232966,1163.2624642923474Z" fill="#5f5f5f" stroke="#5f5f5f"/><path d="M500.433746566996,986.5282836835831L474.48760567232966,1163.2624642923474L714.0321956947446,1081.5055107325315Z" fill="#565656" stroke="#565656"/><path d="M500.433746566996,986.5282836835831L714.0321956947446,1081.5055107325315L708.4181622974575,939.1795836109668Z" fill="#4f4f4f" stroke="#4f4f4f"/><path d="M708.4181622974575,939.1795836109668L714.0321956947446,1081.5055107325315L775.3251631837338,922.8092214278877Z" fill="#484848" stroke="#484848"/><path d="M775.3251631837338,922.8092214278877L714.0321956947446,1081.5055107325315L830.7988572120667,1100.3609366342425Z" fill="#454545" stroke="#454545"/><path d="M1026.4675326179713,998.8783212471753L830.7988572120667,1100.3609366342425L977.435917602852,1115.146435573697Z" fill="#383838" stroke="#383838"/><path d="M1026.4675326179713,998.8783212471753L977.435917602852,1115.146435573697L1066.8125444836915,1169.797278251499Z" fill="#323232" stroke="#323232"/><path d="M1026.4675326179713,998.8783212471753L1066.8125444836915,1169.797278251499L1139.6438000444323,968.908408312127Z" fill="#2e2e2e" stroke="#2e2e2e"/><path d="M1139.6438000444323,968.908408312127L1066.8125444836915,1169.797278251499L1218.1779645569623,1021.1584632005543Z" fill="#292929" stroke="#292929"/><path d="M1218.1779645569623,1021.1584632005543L1066.8125444836915,1169.797278251499L1326.5712005272508,1129.617617558688Z" fill="#232323" stroke="#232323"/><path d="M1218.1779645569623,1021.1584632005543L1326.5712005272508,1129.617617558688L1376.8854866176844,926.0746318101883Z" fill="#191919" stroke="#191919"/><path d="M1376.8854866176844,926.0746318101883L1326.5712005272508,1129.617617558688L1445.9009587671608,1082.471672957763Z" fill="#121212" stroke="#121212"/><path d="M1376.8854866176844,926.0746318101883L1445.9009587671608,1082.471672957763L1557.5147472135723,1005.9529109951109Z" fill="#0a0a0a" stroke="#0a0a0a"/><path d="M1557.5147472135723,1005.9529109951109L1445.9009587671608,1082.471672957763L1568.5626109410077,1088.5121816117316Z" fill="#040404" stroke="#040404"/><path d="M1557.5147472135723,1005.9529109951109L1568.5626109410077,1088.5121816117316L1765.4616340901703,1020.8404407184571Z" fill="#000000" stroke="#000000"/><path d="M1765.4616340901703,1020.8404407184571L1568.5626109410077,1088.5121816117316L1691.7263753246516,1157.1107896137983Z" fill="#000000" stroke="#000000"/><path d="M-37.83133436925709,1135.9562702849507L376.87436224892735,1165.0505241192877L126.46571022458375,1133.0263445153832Z" fill="#727272" stroke="#727272"/><path d="M126.46571022458375,1133.0263445153832L376.87436224892735,1165.0505241192877L266.2729409057647,1106.7228095512837Z" fill="#6b6b6b" stroke="#6b6b6b"/><path d="M376.87436224892735,1165.0505241192877L1066.8125444836915,1169.797278251499L474.48760567232966,1163.2624642923474Z" fill="#4f4f4f" stroke="#4f4f4f"/><path d="M474.48760567232966,1163.2624642923474L1066.8125444836915,1169.797278251499L830.7988572120667,1100.3609366342425Z" fill="#434343" stroke="#434343"/><path d="M474.48760567232966,1163.2624642923474L830.7988572120667,1100.3609366342425L714.0321956947446,1081.5055107325315Z" fill="#4c4c4c" stroke="#4c4c4c"/><path d="M830.7988572120667,1100.3609366342425L1066.8125444836915,1169.797278251499L977.435917602852,1115.146435573697Z" fill="#373737" stroke="#373737"/><path d="M1066.8125444836915,1169.797278251499L1691.7263753246516,1157.1107896137983L1326.5712005272508,1129.617617558688Z" fill="#141414" stroke="#141414"/><path d="M1326.5712005272508,1129.617617558688L1691.7263753246516,1157.1107896137983L1445.9009587671608,1082.471672957763Z" fill="#070707" stroke="#070707"/><path d="M1445.9009587671608,1082.471672957763L1691.7263753246516,1157.1107896137983L1568.5626109410077,1088.5121816117316Z" fill="#000000" stroke="#000000"/></g></svg>