<svg width="1600" height="1000" xmlns="http://www.w3.org/2000/svg"><g><path d="M-81.1784388218075,-57.151222843676805L-125.38345240987837,489.0638067852706L-30.087028741836548,227.70939054898918Z" fill="#284d5a" stroke="#284d5a"/><path d="M-81.1784388218075,-57.151222843676805L-30.087028741836548,227.70939054898918L-47.98044914379716,15.460472702980042Z" fill="#156e69" stroke="#156e69"/><path d="M-81.1784388218075,-57.151222843676805L-47.98044914379716,15.460472702980042L53.536971202120185,-98.0779774300754Z" fill="#0a8776" stroke="#0a8776"/><path d="M53.536971202120185,-98.0779774300754L-47.98044914379716,15.460472702980042L37.43866542354226,100.02864170819521Z" fill="#13726b" stroke="#13726b"/><path d="M53.536971202120185,-98.0779774300754L37.43866542354226,100.02864170819521L200.24417784065008,-28.523107934743166Z" fill="#186866" stroke="#186866"/><path d="M53.536971202120185,-98.0779774300754L200.24417784065008,-28.523107934743166L397.66943673603237,-64.59673488512635Z" fill="#1a6364" stroke="#1a6364"/><path d="M53.536971202120185,-98.0779774300754L397.66943673603237,-64.59673488512635L547.8465482778847,-69.14582354016602Z" fill="#23555d" stroke="#23555d"/><path d="M53.536971202120185,-98.0779774300754L547.8465482778847,-69.14582354016602L953.5754284355789,-103.81931039504707Z" fill="#3f5968" stroke="#3f5968"/><path d="M200.24417784065008,-28.523107934743166L37.43866542354226,100.02864170819521L226.98571275919676,128.11434220522642Z" fill="#254a57" stroke="#254a57"/><path d="M200.24417784065008,-28.523107934743166L226.98571275919676,128.11434220522642L373.50100913085043,63.73140444047749Z" fill="#2c3a4f" stroke="#2c3a4f"/><path d="M200.24417784065008,-28.523107934743166L373.50100913085043,63.73140444047749L397.66943673603237,-64.59673488512635Z" fill="#294253" stroke="#294253"/><path d="M397.66943673603237,-64.59673488512635L373.50100913085043,63.73140444047749L522.0149996224791,117.1825600694865Z" fill="#3f3651" stroke="#3f3651"/><path d="M397.66943673603237,-64.59673488512635L522.0149996224791,117.1825600694865L547.8465482778847,-69.14582354016602Z" fill="#43425b" stroke="#43425b"/><path d="M547.8465482778847,-69.14582354016602L522.0149996224791,117.1825600694865L626.0826506931335,-63.6034247931093Z" fill="#4f425e" stroke="#4f425e"/><path d="M547.8465482778847,-69.14582354016602L626.0826506931335,-63.6034247931093L953.5754284355789,-103.81931039504707Z" fill="#596164" stroke="#596164"/><path d="M626.0826506931335,-63.6034247931093L522.0149996224791,117.1825600694865L722.70672689192,40.689294124022126Z" fill="#5c385b" stroke="#5c385b"/><path d="M626.0826506931335,-63.6034247931093L722.70672689192,40.689294124022126L876.0484083741903,-15.471573863178492Z" fill="#635457" stroke="#635457"/><path d="M626.0826506931335,-63.6034247931093L876.0484083741903,-15.471573863178492L953.5754284355789,-103.81931039504707Z" fill="#656d55" stroke="#656d55"/><path d="M876.0484083741903,-15.471573863178492L722.70672689192,40.689294124022126L869.4116850849241,33.40836530551314Z" fill="#705849" stroke="#705849"/><path d="M876.0484083741903,-15.471573863178492L869.4116850849241,33.40836530551314L946.0561905428767,122.43837612681091Z" fill="#7a5c3d" stroke="#7a5c3d"/><path d="M876.0484083741903,-15.471573863178492L946.0561905428767,122.43837612681091L1072.4034414533526,79.13638355210423Z" fill="#826233" stroke="#826233"/><path d="M876.0484083741903,-15.471573863178492L1072.4034414533526,79.13638355210423L953.5754284355789,-103.81931039504707Z" fill="#79773e" stroke="#79773e"/><path d="M953.5754284355789,-103.81931039504707L1072.4034414533526,79.13638355210423L1173.2630984578282,-37.61395638808608Z" fill="#7a843d" stroke="#7a843d"/><path d="M953.5754284355789,-103.81931039504707L1173.2630984578282,-37.61395638808608L1274.776993766427,-49.82691309414804Z" fill="#779742" stroke="#779742"/><path d="M953.5754284355789,-103.81931039504707L1274.776993766427,-49.82691309414804L1440.646913163364,-105.27406381443143Z" fill="#77a644" stroke="#77a644"/><path d="M1173.2630984578282,-37.61395638808608L1072.4034414533526,79.13638355210423L1260.634100753814,134.64891023933887Z" fill="#867930" stroke="#867930"/><path d="M1173.2630984578282,-37.61395638808608L1260.634100753814,134.64891023933887L1274.776993766427,-49.82691309414804Z" fill="#828c35" stroke="#828c35"/><path d="M1274.776993766427,-49.82691309414804L1260.634100753814,134.64891023933887L1433.622033689171,72.68540130928159Z" fill="#888b30" stroke="#888b30"/><path d="M1274.776993766427,-49.82691309414804L1433.622033689171,72.68540130928159L1440.646913163364,-105.27406381443143Z" fill="#7fa73b" stroke="#7fa73b"/><path d="M1440.646913163364,-105.27406381443143L1433.622033689171,72.68540130928159L1587.2641833499074,-32.7113102003932Z" fill="#82b13a" stroke="#82b13a"/><path d="M1440.646913163364,-105.27406381443143L1587.2641833499074,-32.7113102003932L1677.5736216455698,-57.93016101233661Z" fill="#7ec540" stroke="#7ec540"/><path d="M1587.2641833499074,-32.7113102003932L1433.622033689171,72.68540130928159L1628.6727313231677,77.25528580136597Z" fill="#8aa731" stroke="#8aa731"/><path d="M1587.2641833499074,-32.7113102003932L1628.6727313231677,77.25528580136597L1677.5736216455698,-57.93016101233661Z" fill="#87bb37" stroke="#87bb37"/><path d="M1677.5736216455698,-57.93016101233661L1628.6727313231677,77.25528580136597L1784.55470636487,28.39502412825823Z" fill="#8ab635" stroke="#8ab635"/><path d="M-47.98044914379716,15.460472702980042L-30.087028741836548,227.70939054898918L37.43866542354226,100.02864170819521Z" fill="#1e5a5f" stroke="#1e5a5f"/><path d="M37.43866542354226,100.02864170819521L-30.087028741836548,227.70939054898918L29.908666368573904,204.5417681057006Z" fill="#284454" stroke="#284454"/><path d="M37.43866542354226,100.02864170819521L29.908666368573904,204.5417681057006L226.98571275919676,128.11434220522642Z" fill="#2a3e51" stroke="#2a3e51"/><path d="M226.98571275919676,128.11434220522642L29.908666368573904,204.5417681057006L193.28916368074715,241.98904428631067Z" fill="#342946" stroke="#342946"/><path d="M226.98571275919676,128.11434220522642L193.28916368074715,241.98904428631067L374.2124179378152,225.69727309048176Z" fill="#3d133b" stroke="#3d133b"/><path d="M226.98571275919676,128.11434220522642L374.2124179378152,225.69727309048176L373.50100913085043,63.73140444047749Z" fill="#3b1a3f" stroke="#3b1a3f"/><path d="M373.50100913085043,63.73140444047749L374.2124179378152,225.69727309048176L522.0149996224791,117.1825600694865Z" fill="#4a1b44" stroke="#4a1b44"/><path d="M522.0149996224791,117.1825600694865L374.2124179378152,225.69727309048176L535.8772371523082,267.56536714732647Z" fill="#5b0a3e" stroke="#5b0a3e"/><path d="M522.0149996224791,117.1825600694865L535.8772371523082,267.56536714732647L639.4741545896977,284.7522393800318Z" fill="#6d0a43" stroke="#6d0a43"/><path d="M522.0149996224791,117.1825600694865L639.4741545896977,284.7522393800318L722.70672689192,40.689294124022126Z" fill="#6a194c" stroke="#6a194c"/><path d="M722.70672689192,40.689294124022126L639.4741545896977,284.7522393800318L781.4179239515215,190.5496355239302Z" fill="#771d41" stroke="#771d41"/><path d="M722.70672689192,40.689294124022126L781.4179239515215,190.5496355239302L869.4116850849241,33.40836530551314Z" fill="#744043" stroke="#744043"/><path d="M869.4116850849241,33.40836530551314L781.4179239515215,190.5496355239302L946.0561905428767,122.43837612681091Z" fill="#7f4537" stroke="#7f4537"/><path d="M946.0561905428767,122.43837612681091L781.4179239515215,190.5496355239302L971.0837380774319,183.61731749027967Z" fill="#893c2c" stroke="#893c2c"/><path d="M946.0561905428767,122.43837612681091L971.0837380774319,183.61731749027967L1072.4034414533526,79.13638355210423Z" fill="#8b542a" stroke="#8b542a"/><path d="M1072.4034414533526,79.13638355210423L971.0837380774319,183.61731749027967L1176.8917535059154,180.88923582807183Z" fill="#8e5625" stroke="#8e5625"/><path d="M1072.4034414533526,79.13638355210423L1176.8917535059154,180.88923582807183L1260.634100753814,134.64891023933887Z" fill="#8f6526" stroke="#8f6526"/><path d="M1260.634100753814,134.64891023933887L1176.8917535059154,180.88923582807183L1288.7469631433487,245.1090385671705Z" fill="#975e1e" stroke="#975e1e"/><path d="M1260.634100753814,134.64891023933887L1288.7469631433487,245.1090385671705L1450.7874769717455,208.49432640708983Z" fill="#99651c" stroke="#99651c"/><path d="M1260.634100753814,134.64891023933887L1450.7874769717455,208.49432640708983L1433.622033689171,72.68540130928159Z" fill="#937a24" stroke="#937a24"/><path d="M1433.622033689171,72.68540130928159L1450.7874769717455,208.49432640708983L1527.2764289192855,205.3409923799336Z" fill="#987d20" stroke="#987d20"/><path d="M1433.622033689171,72.68540130928159L1527.2764289192855,205.3409923799336L1628.6727313231677,77.25528580136597Z" fill="#938f26" stroke="#938f26"/><path d="M1628.6727313231677,77.25528580136597L1527.2764289192855,205.3409923799336L1760.6187046598643,198.0365822184831Z" fill="#9a8f21" stroke="#9a8f21"/><path d="M1628.6727313231677,77.25528580136597L1760.6187046598643,198.0365822184831L1784.55470636487,28.39502412825823Z" fill="#949f29" stroke="#949f29"/><path d="M1784.55470636487,28.39502412825823L1760.6187046598643,198.0365822184831L1774.6728226728737,806.6747661586851Z" fill="#c48526" stroke="#c48526"/><path d="M-30.087028741836548,227.70939054898918L-125.38345240987837,489.0638067852706L-43.5460964217782,340.54707725532353Z" fill="#4a4c63" stroke="#4a4c63"/><path d="M-30.087028741836548,227.70939054898918L-43.5460964217782,340.54707725532353L58.54714938439429,320.78701922670007Z" fill="#414159" stroke="#414159"/><path d="M-30.087028741836548,227.70939054898918L58.54714938439429,320.78701922670007L29.908666368573904,204.5417681057006Z" fill="#373d54" stroke="#373d54"/><path d="M29.908666368573904,204.5417681057006L58.54714938439429,320.78701922670007L193.28916368074715,241.98904428631067Z" fill="#3e304e" stroke="#3e304e"/><path d="M193.28916368074715,241.98904428631067L58.54714938439429,320.78701922670007L187.14663519524038,361.55407877638936Z" fill="#4f274d" stroke="#4f274d"/><path d="M193.28916368074715,241.98904428631067L187.14663519524038,361.55407877638936L374.2124179378152,225.69727309048176Z" fill="#4f1542" stroke="#4f1542"/><path d="M374.2124179378152,225.69727309048176L187.14663519524038,361.55407877638936L419.29042456671596,410.9402078669518Z" fill="#630a41" stroke="#630a41"/><path d="M374.2124179378152,225.69727309048176L419.29042456671596,410.9402078669518L535.8772371523082,267.56536714732647Z" fill="#6d0a44" stroke="#6d0a44"/><path d="M535.8772371523082,267.56536714732647L419.29042456671596,410.9402078669518L524.626669222489,416.14286405034363Z" fill="#850b4b" stroke="#850b4b"/><path d="M535.8772371523082,267.56536714732647L524.626669222489,416.14286405034363L639.4741545896977,284.7522393800318Z" fill="#860b4b" stroke="#860b4b"/><path d="M639.4741545896977,284.7522393800318L524.626669222489,416.14286405034363L678.8029111828655,383.79863429814577Z" fill="#970b50" stroke="#970b50"/><path d="M639.4741545896977,284.7522393800318L678.8029111828655,383.79863429814577L781.4179239515215,190.5496355239302Z" fill="#8e1445" stroke="#8e1445"/><path d="M781.4179239515215,190.5496355239302L678.8029111828655,383.79863429814577L812.6223283912987,412.2743043769151Z" fill="#9f1d41" stroke="#9f1d41"/><path d="M781.4179239515215,190.5496355239302L812.6223283912987,412.2743043769151L956.8793832790107,339.76288097910583Z" fill="#a42c35" stroke="#a42c35"/><path d="M781.4179239515215,190.5496355239302L956.8793832790107,339.76288097910583L971.0837380774319,183.61731749027967Z" fill="#97332a" stroke="#97332a"/><path d="M971.0837380774319,183.61731749027967L956.8793832790107,339.76288097910583L1140.8727164939046,363.32203765399754Z" fill="#ab4326" stroke="#ab4326"/><path d="M971.0837380774319,183.61731749027967L1140.8727164939046,363.32203765399754L1176.8917535059154,180.88923582807183Z" fill="#a04b21" stroke="#a04b21"/><path d="M1176.8917535059154,180.88923582807183L1140.8727164939046,363.32203765399754L1288.7469631433487,245.1090385671705Z" fill="#a75621" stroke="#a75621"/><path d="M1288.7469631433487,245.1090385671705L1140.8727164939046,363.32203765399754L1255.530787780881,420.39028915576637Z" fill="#bb5927" stroke="#bb5927"/><path d="M1288.7469631433487,245.1090385671705L1255.530787780881,420.39028915576637L1408.0378870200366,401.48573060519993Z" fill="#c06327" stroke="#c06327"/><path d="M1288.7469631433487,245.1090385671705L1408.0378870200366,401.48573060519993L1450.7874769717455,208.49432640708983Z" fill="#b06a22" stroke="#b06a22"/><path d="M1450.7874769717455,208.49432640708983L1408.0378870200366,401.48573060519993L1575.9849479142576,366.5239715203643Z" fill="#bb7425" stroke="#bb7425"/><path d="M1450.7874769717455,208.49432640708983L1575.9849479142576,366.5239715203643L1527.2764289192855,205.3409923799336Z" fill="#ac7820" stroke="#ac7820"/><path d="M1527.2764289192855,205.3409923799336L1575.9849479142576,366.5239715203643L1760.6187046598643,198.0365822184831Z" fill="#ad831f" stroke="#ad831f"/><path d="M1760.6187046598643,198.0365822184831L1575.9849479142576,366.5239715203643L1747.4714132398367,356.5242213383317Z" fill="#bb8523" stroke="#bb8523"/><path d="M1760.6187046598643,198.0365822184831L1747.4714132398367,356.5242213383317L1749.7596381325275,582.5673160236329Z" fill="#cd8529" stroke="#cd8529"/><path d="M1760.6187046598643,198.0365822184831L1749.7596381325275,582.5673160236329L1774.6728226728737,806.6747661586851Z" fill="#e6a612" stroke="#e6a612"/><path d="M-43.5460964217782,340.54707725532353L-125.38345240987837,489.0638067852706L54.0500174369663,495.40656541474164Z" fill="#5e525d" stroke="#5e525d"/><path d="M-43.5460964217782,340.54707725532353L54.0500174369663,495.40656541474164L58.54714938439429,320.78701922670007Z" fill="#593d5e" stroke="#593d5e"/><path d="M58.54714938439429,320.78701922670007L54.0500174369663,495.40656541474164L187.14663519524038,361.55407877638936Z" fill="#603058" stroke="#603058"/><path d="M187.14663519524038,361.55407877638936L54.0500174369663,495.40656541474164L193.75546110793948,551.4528968464583Z" fill="#713a47" stroke="#713a47"/><path d="M187.14663519524038,361.55407877638936L193.75546110793948,551.4528968464583L419.29042456671596,410.9402078669518Z" fill="#751e42" stroke="#751e42"/><path d="M419.29042456671596,410.9402078669518L193.75546110793948,551.4528968464583L369.7414991632104,575.2528092451394Z" fill="#862631" stroke="#862631"/><path d="M419.29042456671596,410.9402078669518L369.7414991632104,575.2528092451394L545.2799508254975,552.6406435668468Z" fill="#982736" stroke="#982736"/><path d="M419.29042456671596,410.9402078669518L545.2799508254975,552.6406435668468L524.626669222489,416.14286405034363Z" fill="#981a43" stroke="#981a43"/><path d="M524.626669222489,416.14286405034363L545.2799508254975,552.6406435668468L678.8029111828655,383.79863429814577Z" fill="#a31848" stroke="#a31848"/><path d="M678.8029111828655,383.79863429814577L545.2799508254975,552.6406435668468L678.9099956955761,584.1080468147993Z" fill="#b42640" stroke="#b42640"/><path d="M678.8029111828655,383.79863429814577L678.9099956955761,584.1080468147993L774.8941961489618,556.4436078071594Z" fill="#bd3138" stroke="#bd3138"/><path d="M678.8029111828655,383.79863429814577L774.8941961489618,556.4436078071594L812.6223283912987,412.2743043769151Z" fill="#b82a3d" stroke="#b82a3d"/><path d="M812.6223283912987,412.2743043769151L774.8941961489618,556.4436078071594L973.3420834969729,476.76768586970866Z" fill="#c7412d" stroke="#c7412d"/><path d="M812.6223283912987,412.2743043769151L973.3420834969729,476.76768586970866L956.8793832790107,339.76288097910583Z" fill="#c13933" stroke="#c13933"/><path d="M956.8793832790107,339.76288097910583L973.3420834969729,476.76768586970866L1140.8727164939046,363.32203765399754Z" fill="#c4442e" stroke="#c4442e"/><path d="M1140.8727164939046,363.32203765399754L973.3420834969729,476.76768586970866L1167.9175047855824,537.0947867073119Z" fill="#d05a22" stroke="#d05a22"/><path d="M1140.8727164939046,363.32203765399754L1167.9175047855824,537.0947867073119L1255.530787780881,420.39028915576637Z" fill="#cf5f24" stroke="#cf5f24"/><path d="M1255.530787780881,420.39028915576637L1167.9175047855824,537.0947867073119L1259.4812759477645,507.7861303836107Z" fill="#d7701b" stroke="#d7701b"/><path d="M1255.530787780881,420.39028915576637L1259.4812759477645,507.7861303836107L1377.1797359827906,531.8243288062513Z" fill="#d9771a" stroke="#d9771a"/><path d="M1255.530787780881,420.39028915576637L1377.1797359827906,531.8243288062513L1408.0378870200366,401.48573060519993Z" fill="#d47321" stroke="#d47321"/><path d="M1408.0378870200366,401.48573060519993L1377.1797359827906,531.8243288062513L1566.11730591394,561.2320646177977Z" fill="#dd8a18" stroke="#dd8a18"/><path d="M1408.0378870200366,401.48573060519993L1566.11730591394,561.2320646177977L1575.9849479142576,366.5239715203643Z" fill="#d68322" stroke="#d68322"/><path d="M1575.9849479142576,366.5239715203643L1566.11730591394,561.2320646177977L1747.4714132398367,356.5242213383317Z" fill="#d58b25" stroke="#d58b25"/><path d="M1747.4714132398367,356.5242213383317L1566.11730591394,561.2320646177977L1749.7596381325275,582.5673160236329Z" fill="#e29e18" stroke="#e29e18"/><path d="M-125.38345240987837,489.0638067852706L-134.17298896238208,1016.5668606664985L-58.19500397890806,679.7601644787937Z" fill="#779b42" stroke="#779b42"/><path d="M-125.38345240987837,489.0638067852706L-58.19500397890806,679.7601644787937L55.99821693263948,616.9838569499552Z" fill="#777940" stroke="#777940"/><path d="M-125.38345240987837,489.0638067852706L55.99821693263948,616.9838569499552L54.0500174369663,495.40656541474164Z" fill="#706348" stroke="#706348"/><path d="M54.0500174369663,495.40656541474164L55.99821693263948,616.9838569499552L193.75546110793948,551.4528968464583Z" fill="#7b563c" stroke="#7b563c"/><path d="M193.75546110793948,551.4528968464583L55.99821693263948,616.9838569499552L172.37996698357165,694.7685576416552Z" fill="#865e2f" stroke="#865e2f"/><path d="M193.75546110793948,551.4528968464583L172.37996698357165,694.7685576416552L369.7414991632104,575.2528092451394Z" fill="#8d4a27" stroke="#8d4a27"/><path d="M369.7414991632104,575.2528092451394L172.37996698357165,694.7685576416552L398.9342577662319,638.0292502138764Z" fill="#934320" stroke="#934320"/><path d="M369.7414991632104,575.2528092451394L398.9342577662319,638.0292502138764L545.2799508254975,552.6406435668468Z" fill="#a33a28" stroke="#a33a28"/><path d="M545.2799508254975,552.6406435668468L398.9342577662319,638.0292502138764L580.5151588004082,727.2085912618786Z" fill="#b14328" stroke="#b14328"/><path d="M545.2799508254975,552.6406435668468L580.5151588004082,727.2085912618786L678.9099956955761,584.1080468147993Z" fill="#bf412d" stroke="#bf412d"/><path d="M678.9099956955761,584.1080468147993L580.5151588004082,727.2085912618786L686.288502831012,700.1729039568454Z" fill="#c74b2c" stroke="#c74b2c"/><path d="M678.9099956955761,584.1080468147993L686.288502831012,700.1729039568454L774.8941961489618,556.4436078071594Z" fill="#cc4b26" stroke="#cc4b26"/><path d="M774.8941961489618,556.4436078071594L686.288502831012,700.1729039568454L843.8570390827954,618.1125255860388Z" fill="#d25520" stroke="#d25520"/><path d="M774.8941961489618,556.4436078071594L843.8570390827954,618.1125255860388L973.3420834969729,476.76768586970866Z" fill="#d3541e" stroke="#d3541e"/><path d="M973.3420834969729,476.76768586970866L843.8570390827954,618.1125255860388L1023.5958258155733,640.6131679471582Z" fill="#df6810" stroke="#df6810"/><path d="M973.3420834969729,476.76768586970866L1023.5958258155733,640.6131679471582L1167.9175047855824,537.0947867073119Z" fill="#de6d12" stroke="#de6d12"/><path d="M1167.9175047855824,537.0947867073119L1023.5958258155733,640.6131679471582L1117.8447266947478,724.9075664207339Z" fill="#e88407" stroke="#e88407"/><path d="M1167.9175047855824,537.0947867073119L1117.8447266947478,724.9075664207339L1244.4852709304541,720.2463563717902Z" fill="#ea9105" stroke="#ea9105"/><path d="M1167.9175047855824,537.0947867073119L1244.4852709304541,720.2463563717902L1259.4812759477645,507.7861303836107Z" fill="#e78808" stroke="#e78808"/><path d="M1259.4812759477645,507.7861303836107L1244.4852709304541,720.2463563717902L1377.1797359827906,531.8243288062513Z" fill="#e98f08" stroke="#e98f08"/><path d="M1377.1797359827906,531.8243288062513L1244.4852709304541,720.2463563717902L1401.7079524509609,714.1584904119372Z" fill="#eda104" stroke="#eda104"/><path d="M1377.1797359827906,531.8243288062513L1401.7079524509609,714.1584904119372L1543.0059271864593,682.4889047909528Z" fill="#efaa04" stroke="#efaa04"/><path d="M1377.1797359827906,531.8243288062513L1543.0059271864593,682.4889047909528L1566.11730591394,561.2320646177977Z" fill="#eda607" stroke="#eda607"/><path d="M1566.11730591394,561.2320646177977L1543.0059271864593,682.4889047909528L1749.7596381325275,582.5673160236329Z" fill="#f1b705" stroke="#f1b705"/><path d="M1749.7596381325275,582.5673160236329L1543.0059271864593,682.4889047909528L1746.0960227251053,733.3701007906348Z" fill="#f4c204" stroke="#f4c204"/><path d="M1749.7596381325275,582.5673160236329L1746.0960227251053,733.3701007906348L1774.6728226728737,806.6747661586851Z" fill="#f5ca03" stroke="#f5ca03"/><path d="M-58.19500397890806,679.7601644787937L-134.17298896238208,1016.5668606664985L-44.23483282327652,800.3489326313138Z" fill="#7ca83e" stroke="#7ca83e"/><path d="M-58.19500397890806,679.7601644787937L-44.23483282327652,800.3489326313138L55.99821693263948,616.9838569499552Z" fill="#7d863b" stroke="#7d863b"/><path d="M55.99821693263948,616.9838569499552L-44.23483282327652,800.3489326313138L172.37996698357165,694.7685576416552Z" fill="#827a34" stroke="#827a34"/><path d="M172.37996698357165,694.7685576416552L-44.23483282327652,800.3489326313138L123.64460648037493,862.9918789397925Z" fill="#878430" stroke="#878430"/><path d="M172.37996698357165,694.7685576416552L123.64460648037493,862.9918789397925L259.7673655394465,855.7413083687425Z" fill="#8f7627" stroke="#8f7627"/><path d="M172.37996698357165,694.7685576416552L259.7673655394465,855.7413083687425L388.8037450052798,823.2043027505279Z" fill="#95651f" stroke="#95651f"/><path d="M172.37996698357165,694.7685576416552L388.8037450052798,823.2043027505279L398.9342577662319,638.0292502138764Z" fill="#96501d" stroke="#96501d"/><path d="M398.9342577662319,638.0292502138764L388.8037450052798,823.2043027505279L580.5151588004082,727.2085912618786Z" fill="#ac5324" stroke="#ac5324"/><path d="M580.5151588004082,727.2085912618786L388.8037450052798,823.2043027505279L482.4337893538177,863.0566708557308Z" fill="#b26023" stroke="#b26023"/><path d="M580.5151588004082,727.2085912618786L482.4337893538177,863.0566708557308L688.8545954972506,802.0924685709178Z" fill="#c25f28" stroke="#c25f28"/><path d="M580.5151588004082,727.2085912618786L688.8545954972506,802.0924685709178L686.288502831012,700.1729039568454Z" fill="#ca582a" stroke="#ca582a"/><path d="M686.288502831012,700.1729039568454L688.8545954972506,802.0924685709178L801.7664798442274,835.8397562708706Z" fill="#d26921" stroke="#d26921"/><path d="M686.288502831012,700.1729039568454L801.7664798442274,835.8397562708706L843.8570390827954,618.1125255860388Z" fill="#d5671c" stroke="#d5671c"/><path d="M843.8570390827954,618.1125255860388L801.7664798442274,835.8397562708706L1028.2562655676156,795.7612927816808Z" fill="#e27e0f" stroke="#e27e0f"/><path d="M843.8570390827954,618.1125255860388L1028.2562655676156,795.7612927816808L1023.5958258155733,640.6131679471582Z" fill="#e77e08" stroke="#e77e08"/><path d="M1023.5958258155733,640.6131679471582L1028.2562655676156,795.7612927816808L1117.8447266947478,724.9075664207339Z" fill="#ea8e06" stroke="#ea8e06"/><path d="M1117.8447266947478,724.9075664207339L1028.2562655676156,795.7612927816808L1092.0075267087668,818.3369878213853Z" fill="#ec9a04" stroke="#ec9a04"/><path d="M1117.8447266947478,724.9075664207339L1092.0075267087668,818.3369878213853L1244.4852709304541,720.2463563717902Z" fill="#ec9e03" stroke="#ec9e03"/><path d="M1244.4852709304541,720.2463563717902L1092.0075267087668,818.3369878213853L1325.7297234702855,817.6506234984845Z" fill="#efaa02" stroke="#efaa02"/><path d="M1244.4852709304541,720.2463563717902L1325.7297234702855,817.6506234984845L1401.7079524509609,714.1584904119372Z" fill="#f0af01" stroke="#f0af01"/><path d="M1401.7079524509609,714.1584904119372L1325.7297234702855,817.6506234984845L1432.0001683104783,832.9115040041506Z" fill="#f2bd01" stroke="#f2bd01"/><path d="M1401.7079524509609,714.1584904119372L1432.0001683104783,832.9115040041506L1543.0059271864593,682.4889047909528Z" fill="#f2bd02" stroke="#f2bd02"/><path d="M1543.0059271864593,682.4889047909528L1432.0001683104783,832.9115040041506L1535.9658963326365,847.9091711528599Z" fill="#f4c901" stroke="#f4c901"/><path d="M1543.0059271864593,682.4889047909528L1535.9658963326365,847.9091711528599L1746.0960227251053,733.3701007906348Z" fill="#f5cf01" stroke="#f5cf01"/><path d="M1746.0960227251053,733.3701007906348L1535.9658963326365,847.9091711528599L1774.6728226728737,806.6747661586851Z" fill="#f8d900" stroke="#f8d900"/><path d="M-44.23483282327652,800.3489326313138L-134.17298896238208,1016.5668606664985L24.86250350251794,1032.7520196978003Z" fill="#81b73b" stroke="#81b73b"/><path d="M-44.23483282327652,800.3489326313138L24.86250350251794,1032.7520196978003L123.64460648037493,862.9918789397925Z" fill="#86a034" stroke="#86a034"/><path d="M123.64460648037493,862.9918789397925L24.86250350251794,1032.7520196978003L131.8557910155505,1075.3816723264754Z" fill="#8da52f" stroke="#8da52f"/><path d="M123.64460648037493,862.9918789397925L131.8557910155505,1075.3816723264754L240.26667756959796,954.3661275878549Z" fill="#929529" stroke="#929529"/><path d="M123.64460648037493,862.9918789397925L240.26667756959796,954.3661275878549L259.7673655394465,855.7413083687425Z" fill="#938125" stroke="#938125"/><path d="M259.7673655394465,855.7413083687425L240.26667756959796,954.3661275878549L388.06701466441154,948.4185352642089Z" fill="#9a771d" stroke="#9a771d"/><path d="M259.7673655394465,855.7413083687425L388.06701466441154,948.4185352642089L388.8037450052798,823.2043027505279Z" fill="#9f6b1c" stroke="#9f6b1c"/><path d="M388.8037450052798,823.2043027505279L388.06701466441154,948.4185352642089L482.4337893538177,863.0566708557308Z" fill="#ab6c20" stroke="#ab6c20"/><path d="M482.4337893538177,863.0566708557308L388.06701466441154,948.4185352642089L549.6095784567297,1031.4264086075127Z" fill="#b57822" stroke="#b57822"/><path d="M482.4337893538177,863.0566708557308L549.6095784567297,1031.4264086075127L726.8910147808492,958.1610165908933Z" fill="#c67928" stroke="#c67928"/><path d="M482.4337893538177,863.0566708557308L726.8910147808492,958.1610165908933L688.8545954972506,802.0924685709178Z" fill="#cb6c2a" stroke="#cb6c2a"/><path d="M688.8545954972506,802.0924685709178L726.8910147808492,958.1610165908933L801.7664798442274,835.8397562708706Z" fill="#d67a1f" stroke="#d67a1f"/><path d="M801.7664798442274,835.8397562708706L726.8910147808492,958.1610165908933L815.041476348415,924.2834199685603Z" fill="#db871a" stroke="#db871a"/><path d="M801.7664798442274,835.8397562708706L815.041476348415,924.2834199685603L971.9257538672537,960.1580162812024Z" fill="#e49410" stroke="#e49410"/><path d="M801.7664798442274,835.8397562708706L971.9257538672537,960.1580162812024L1028.2562655676156,795.7612927816808Z" fill="#ea9808" stroke="#ea9808"/><path d="M1028.2562655676156,795.7612927816808L971.9257538672537,960.1580162812024L1092.0075267087668,818.3369878213853Z" fill="#eda304" stroke="#eda304"/><path d="M1092.0075267087668,818.3369878213853L971.9257538672537,960.1580162812024L1123.3342022169381,1020.0267288275063Z" fill="#f0b304" stroke="#f0b304"/><path d="M1092.0075267087668,818.3369878213853L1123.3342022169381,1020.0267288275063L1325.7297234702855,817.6506234984845Z" fill="#f1b702" stroke="#f1b702"/><path d="M1325.7297234702855,817.6506234984845L1123.3342022169381,1020.0267288275063L1324.6879672911018,1023.971458543092Z" fill="#f4cb01" stroke="#f4cb01"/><path d="M1325.7297234702855,817.6506234984845L1324.6879672911018,1023.971458543092L1432.0001683104783,832.9115040041506Z" fill="#f4cb00" stroke="#f4cb00"/><path d="M1432.0001683104783,832.9115040041506L1324.6879672911018,1023.971458543092L1439.3972857296467,1018.9590205997229Z" fill="#f7db00" stroke="#f7db00"/><path d="M1432.0001683104783,832.9115040041506L1439.3972857296467,1018.9590205997229L1562.6496272999793,923.9610714185983Z" fill="#f8de00" stroke="#f8de00"/><path d="M1432.0001683104783,832.9115040041506L1562.6496272999793,923.9610714185983L1535.9658963326365,847.9091711528599Z" fill="#f7d700" stroke="#f7d700"/><path d="M1535.9658963326365,847.9091711528599L1562.6496272999793,923.9610714185983L1774.6728226728737,806.6747661586851Z" fill="#f9e200" stroke="#f9e200"/><path d="M1774.6728226728737,806.6747661586851L1562.6496272999793,923.9610714185983L1712.500570686534,1033.845873568207Z" fill="#fbee00" stroke="#fbee00"/><path d="M-134.17298896238208,1016.5668606664985L-114.299903428182,1110.5757134221494L24.86250350251794,1032.7520196978003Z" fill="#83c73d" stroke="#83c73d"/><path d="M24.86250350251794,1032.7520196978003L-114.299903428182,1110.5757134221494L131.8557910155505,1075.3816723264754Z" fill="#89b836" stroke="#89b836"/><path d="M240.26667756959796,954.3661275878549L131.8557910155505,1075.3816723264754L275.873965267092,1075.4662678577006Z" fill="#989624" stroke="#989624"/><path d="M240.26667756959796,954.3661275878549L275.873965267092,1075.4662678577006L388.06701466441154,948.4185352642089Z" fill="#9d821d" stroke="#9d821d"/><path d="M388.06701466441154,948.4185352642089L275.873965267092,1075.4662678577006L403.3119235932827,1148.8467372301966Z" fill="#a6841d" stroke="#a6841d"/><path d="M388.06701466441154,948.4185352642089L403.3119235932827,1148.8467372301966L549.6095784567297,1031.4264086075127Z" fill="#b48521" stroke="#b48521"/><path d="M549.6095784567297,1031.4264086075127L403.3119235932827,1148.8467372301966L564.3860509525985,1088.5053392965347Z" fill="#bd8524" stroke="#bd8524"/><path d="M549.6095784567297,1031.4264086075127L564.3860509525985,1088.5053392965347L674.1277478635311,1131.6771263815463Z" fill="#cb8528" stroke="#cb8528"/><path d="M549.6095784567297,1031.4264086075127L674.1277478635311,1131.6771263815463L726.8910147808492,958.1610165908933Z" fill="#d28729" stroke="#d28729"/><path d="M726.8910147808492,958.1610165908933L674.1277478635311,1131.6771263815463L792.497621839866,1095.3264376334846Z" fill="#db9320" stroke="#db9320"/><path d="M726.8910147808492,958.1610165908933L792.497621839866,1095.3264376334846L815.041476348415,924.2834199685603Z" fill="#de951a" stroke="#de951a"/><path d="M815.041476348415,924.2834199685603L792.497621839866,1095.3264376334846L971.9257538672537,960.1580162812024Z" fill="#e6a311" stroke="#e6a311"/><path d="M971.9257538672537,960.1580162812024L792.497621839866,1095.3264376334846L1028.3442483656108,1130.4901618044823Z" fill="#efb309" stroke="#efb309"/><path d="M971.9257538672537,960.1580162812024L1028.3442483656108,1130.4901618044823L1123.3342022169381,1020.0267288275063Z" fill="#f3c004" stroke="#f3c004"/><path d="M1123.3342022169381,1020.0267288275063L1028.3442483656108,1130.4901618044823L1146.2721711304039,1154.8633979726583Z" fill="#f4c603" stroke="#f4c603"/><path d="M1123.3342022169381,1020.0267288275063L1146.2721711304039,1154.8633979726583L1218.2462402712554,1099.1614171117544Z" fill="#f6cd02" stroke="#f6cd02"/><path d="M1123.3342022169381,1020.0267288275063L1218.2462402712554,1099.1614171117544L1324.6879672911018,1023.971458543092Z" fill="#f7d301" stroke="#f7d301"/><path d="M1324.6879672911018,1023.971458543092L1218.2462402712554,1099.1614171117544L1454.4402452465147,1126.111677903682Z" fill="#f9df00" stroke="#f9df00"/><path d="M1324.6879672911018,1023.971458543092L1454.4402452465147,1126.111677903682L1439.3972857296467,1018.9590205997229Z" fill="#fae700" stroke="#fae700"/><path d="M1439.3972857296467,1018.9590205997229L1454.4402452465147,1126.111677903682L1629.467654172331,1129.3562731985003Z" fill="#fcf100" stroke="#fcf100"/><path d="M1439.3972857296467,1018.9590205997229L1629.467654172331,1129.3562731985003L1562.6496272999793,923.9610714185983Z" fill="#fcf500" stroke="#fcf500"/><path d="M1562.6496272999793,923.9610714185983L1629.467654172331,1129.3562731985003L1712.500570686534,1033.845873568207Z" fill="#feff00" stroke="#feff00"/><path d="M1712.500570686534,1033.845873568207L1629.467654172331,1129.3562731985003L1675.548993749544,1119.4512082636356Z" fill="#ffff00" stroke="#ffff00"/><path d="M-114.299903428182,1110.5757134221494L403.3119235932827,1148.8467372301966L131.8557910155505,1075.3816723264754Z" fill="#93a32b" stroke="#93a32b"/><path d="M131.8557910155505,1075.3816723264754L403.3119235932827,1148.8467372301966L275.873965267092,1075.4662678577006Z" fill="#9d8d20" stroke="#9d8d20"/><path d="M403.3119235932827,1148.8467372301966L1146.2721711304039,1154.8633979726583L674.1277478635311,1131.6771263815463Z" fill="#dc951f" stroke="#dc951f"/><path d="M403.3119235932827,1148.8467372301966L674.1277478635311,1131.6771263815463L564.3860509525985,1088.5053392965347Z" fill="#c38526" stroke="#c38526"/><path d="M674.1277478635311,1131.6771263815463L1146.2721711304039,1154.8633979726583L1028.3442483656108,1130.4901618044823Z" fill="#f1b606" stroke="#f1b606"/><path d="M674.1277478635311,1131.6771263815463L1028.3442483656108,1130.4901618044823L792.497621839866,1095.3264376334846Z" fill="#e5a314" stroke="#e5a314"/><path d="M1146.2721711304039,1154.8633979726583L1629.467654172331,1129.3562731985003L1454.4402452465147,1126.111677903682Z" fill="#fae700" stroke="#fae700"/><path d="M1146.2721711304039,1154.8633979726583L1454.4402452465147,1126.111677903682L1218.2462402712554,1099.1614171117544Z" fill="#f8d900" stroke="#f8d900"/></g></svg>