<svg width="1600" height="1000" xmlns="http://www.w3.org/2000/svg"><g><path d="M-119.3048269674182,-28.617702294141054L-112.73535308428109,524.7521338239312L-107.21355470828712,193.94242454320192Z" fill="#d9e0ee" stroke="#d9e0ee"/><path d="M-119.3048269674182,-28.617702294141054L-107.21355470828712,193.94242454320192L-31.347973756492138,83.74865734018385Z" fill="#edecf5" stroke="#edecf5"/><path d="M-119.3048269674182,-28.617702294141054L-31.347973756492138,83.74865734018385L32.35743775963783,-108.78217306919396Z" fill="#f7f2f9" stroke="#f7f2f9"/><path d="M32.35743775963783,-108.78217306919396L-31.347973756492138,83.74865734018385L96.88505913130939,34.490514881908894Z" fill="#eeecf5" stroke="#eeecf5"/><path d="M32.35743775963783,-108.78217306919396L96.88505913130939,34.490514881908894L193.8316006399691,-117.9026656318456Z" fill="#f0eef6" stroke="#f0eef6"/><path d="M193.8316006399691,-117.9026656318456L96.88505913130939,34.490514881908894L283.96348720416427,129.25885998643935Z" fill="#e0e2ef" stroke="#e0e2ef"/><path d="M193.8316006399691,-117.9026656318456L283.96348720416427,129.25885998643935L368.4358724858612,-20.253801941871643Z" fill="#dbdeed" stroke="#dbdeed"/><path d="M193.8316006399691,-117.9026656318456L368.4358724858612,-20.253801941871643L572.9627273138613,-101.56795204617083Z" fill="#d8e0ee" stroke="#d8e0ee"/><path d="M193.8316006399691,-117.9026656318456L572.9627273138613,-101.56795204617083L617.0108555909246,-107.84726036712527Z" fill="#ceddec" stroke="#ceddec"/><path d="M193.8316006399691,-117.9026656318456L617.0108555909246,-107.84726036712527L847.0297607313842,-123.85680355131626Z" fill="#c4d9ea" stroke="#c4d9ea"/><path d="M193.8316006399691,-117.9026656318456L847.0297607313842,-123.85680355131626L1315.0172194931656,-128.17206784151495Z" fill="#a9cee3" stroke="#a9cee3"/><path d="M368.4358724858612,-20.253801941871643L283.96348720416427,129.25885998643935L421.1760439630598,32.44757121428847Z" fill="#cdd5e8" stroke="#cdd5e8"/><path d="M368.4358724858612,-20.253801941871643L421.1760439630598,32.44757121428847L572.9627273138613,-101.56795204617083Z" fill="#ccd8e9" stroke="#ccd8e9"/><path d="M572.9627273138613,-101.56795204617083L421.1760439630598,32.44757121428847L570.6460049841553,22.382981507107615Z" fill="#c2d3e7" stroke="#c2d3e7"/><path d="M572.9627273138613,-101.56795204617083L570.6460049841553,22.382981507107615L617.0108555909246,-107.84726036712527Z" fill="#c0d4e8" stroke="#c0d4e8"/><path d="M617.0108555909246,-107.84726036712527L570.6460049841553,22.382981507107615L670.5902857705951,114.66000236570835Z" fill="#b4cce3" stroke="#b4cce3"/><path d="M617.0108555909246,-107.84726036712527L670.5902857705951,114.66000236570835L845.9968415647745,15.561674125492573Z" fill="#aac8e0" stroke="#aac8e0"/><path d="M617.0108555909246,-107.84726036712527L845.9968415647745,15.561674125492573L847.0297607313842,-123.85680355131626Z" fill="#abcce3" stroke="#abcce3"/><path d="M847.0297607313842,-123.85680355131626L845.9968415647745,15.561674125492573L1015.0489424541593,-19.656949555501342Z" fill="#9ac4de" stroke="#9ac4de"/><path d="M847.0297607313842,-123.85680355131626L1015.0489424541593,-19.656949555501342L1173.5496961791068,-74.56493888050318Z" fill="#92c0da" stroke="#92c0da"/><path d="M847.0297607313842,-123.85680355131626L1173.5496961791068,-74.56493888050318L1315.0172194931656,-128.17206784151495Z" fill="#8cbad3" stroke="#8cbad3"/><path d="M1015.0489424541593,-19.656949555501342L845.9968415647745,15.561674125492573L975.9968873206526,36.777862245216966Z" fill="#8ebdda" stroke="#8ebdda"/><path d="M1015.0489424541593,-19.656949555501342L975.9968873206526,36.777862245216966L1088.2574424427003,62.08317205309868Z" fill="#87b6d4" stroke="#87b6d4"/><path d="M1015.0489424541593,-19.656949555501342L1088.2574424427003,62.08317205309868L1173.5496961791068,-74.56493888050318Z" fill="#88b4d1" stroke="#88b4d1"/><path d="M1173.5496961791068,-74.56493888050318L1088.2574424427003,62.08317205309868L1269.2116572707891,131.20452317409217Z" fill="#7ca9c8" stroke="#7ca9c8"/><path d="M1173.5496961791068,-74.56493888050318L1269.2116572707891,131.20452317409217L1315.0172194931656,-128.17206784151495Z" fill="#7fa8c5" stroke="#7fa8c5"/><path d="M1315.0172194931656,-128.17206784151495L1269.2116572707891,131.20452317409217L1379.8923097830266,128.32812557928264Z" fill="#739dbc" stroke="#739dbc"/><path d="M1315.0172194931656,-128.17206784151495L1379.8923097830266,128.32812557928264L1447.5266330502927,-62.17179028317332Z" fill="#7b9ebb" stroke="#7b9ebb"/><path d="M1315.0172194931656,-128.17206784151495L1447.5266330502927,-62.17179028317332L1685.6897469051182,-52.76057328097522Z" fill="#809cb7" stroke="#809cb7"/><path d="M1447.5266330502927,-62.17179028317332L1379.8923097830266,128.32812557928264L1515.0571308843791,123.82487006485462Z" fill="#7191b1" stroke="#7191b1"/><path d="M1447.5266330502927,-62.17179028317332L1515.0571308843791,123.82487006485462L1617.3404673021287,-25.42083534412086Z" fill="#7790ae" stroke="#7790ae"/><path d="M1447.5266330502927,-62.17179028317332L1617.3404673021287,-25.42083534412086L1685.6897469051182,-52.76057328097522Z" fill="#7f91ad" stroke="#7f91ad"/><path d="M1617.3404673021287,-25.42083534412086L1515.0571308843791,123.82487006485462L1672.1209028642625,53.39926362968981Z" fill="#7287a7" stroke="#7287a7"/><path d="M1617.3404673021287,-25.42083534412086L1672.1209028642625,53.39926362968981L1685.6897469051182,-52.76057328097522Z" fill="#7a88a5" stroke="#7a88a5"/><path d="M1685.6897469051182,-52.76057328097522L1672.1209028642625,53.39926362968981L1685.1614883821458,169.04666217975318Z" fill="#7180a0" stroke="#7180a0"/><path d="M1685.6897469051182,-52.76057328097522L1685.1614883821458,169.04666217975318L1781.8224081303924,434.9474083352834Z" fill="#617197" stroke="#617197"/><path d="M-31.347973756492138,83.74865734018385L-107.21355470828712,193.94242454320192L33.52514952421188,276.380150411278Z" fill="#dcdfee" stroke="#dcdfee"/><path d="M-31.347973756492138,83.74865734018385L33.52514952421188,276.380150411278L96.88505913130939,34.490514881908894Z" fill="#dee0ee" stroke="#dee0ee"/><path d="M96.88505913130939,34.490514881908894L33.52514952421188,276.380150411278L205.84045520983636,182.52064621075988Z" fill="#d3d9ea" stroke="#d3d9ea"/><path d="M96.88505913130939,34.490514881908894L205.84045520983636,182.52064621075988L283.96348720416427,129.25885998643935Z" fill="#d2d8ea" stroke="#d2d8ea"/><path d="M283.96348720416427,129.25885998643935L205.84045520983636,182.52064621075988L420.78231752850115,281.8189953826368Z" fill="#bfcae2" stroke="#bfcae2"/><path d="M283.96348720416427,129.25885998643935L420.78231752850115,281.8189953826368L421.1760439630598,32.44757121428847Z" fill="#becbe2" stroke="#becbe2"/><path d="M421.1760439630598,32.44757121428847L420.78231752850115,281.8189953826368L542.9914619028568,190.89443285018206Z" fill="#b1c5df" stroke="#b1c5df"/><path d="M421.1760439630598,32.44757121428847L542.9914619028568,190.89443285018206L570.6460049841553,22.382981507107615Z" fill="#b7cbe2" stroke="#b7cbe2"/><path d="M570.6460049841553,22.382981507107615L542.9914619028568,190.89443285018206L670.5902857705951,114.66000236570835Z" fill="#aac4df" stroke="#aac4df"/><path d="M670.5902857705951,114.66000236570835L542.9914619028568,190.89443285018206L618.518413938582,246.69458764605224Z" fill="#9ebcda" stroke="#9ebcda"/><path d="M670.5902857705951,114.66000236570835L618.518413938582,246.69458764605224L766.5807340946048,262.77741570957005Z" fill="#92b7d7" stroke="#92b7d7"/><path d="M670.5902857705951,114.66000236570835L766.5807340946048,262.77741570957005L845.9968415647745,15.561674125492573Z" fill="#94bad9" stroke="#94bad9"/><path d="M845.9968415647745,15.561674125492573L766.5807340946048,262.77741570957005L1025.2280793897808,182.3142607603222Z" fill="#83b3d4" stroke="#83b3d4"/><path d="M845.9968415647745,15.561674125492573L1025.2280793897808,182.3142607603222L975.9968873206526,36.777862245216966Z" fill="#85b7d7" stroke="#85b7d7"/><path d="M975.9968873206526,36.777862245216966L1025.2280793897808,182.3142607603222L1088.2574424427003,62.08317205309868Z" fill="#7eafd0" stroke="#7eafd0"/><path d="M1088.2574424427003,62.08317205309868L1025.2280793897808,182.3142607603222L1129.2778663057834,269.73066609352827Z" fill="#70a4c8" stroke="#70a4c8"/><path d="M1088.2574424427003,62.08317205309868L1129.2778663057834,269.73066609352827L1269.2116572707891,131.20452317409217Z" fill="#6e9fc3" stroke="#6e9fc3"/><path d="M1269.2116572707891,131.20452317409217L1129.2778663057834,269.73066609352827L1306.0102431289852,240.03390940837562Z" fill="#6194ba" stroke="#6194ba"/><path d="M1269.2116572707891,131.20452317409217L1306.0102431289852,240.03390940837562L1379.8923097830266,128.32812557928264Z" fill="#6392b6" stroke="#6392b6"/><path d="M1379.8923097830266,128.32812557928264L1306.0102431289852,240.03390940837562L1467.6351452060044,262.07049773074687Z" fill="#5d89af" stroke="#5d89af"/><path d="M1379.8923097830266,128.32812557928264L1467.6351452060044,262.07049773074687L1515.0571308843791,123.82487006485462Z" fill="#6287ab" stroke="#6287ab"/><path d="M1515.0571308843791,123.82487006485462L1467.6351452060044,262.07049773074687L1578.2832215633243,243.80514208227396Z" fill="#5d7ea4" stroke="#5d7ea4"/><path d="M1515.0571308843791,123.82487006485462L1578.2832215633243,243.80514208227396L1685.1614883821458,169.04666217975318Z" fill="#617ba0" stroke="#617ba0"/><path d="M1515.0571308843791,123.82487006485462L1685.1614883821458,169.04666217975318L1672.1209028642625,53.39926362968981Z" fill="#6a7fa1" stroke="#6a7fa1"/><path d="M-107.21355470828712,193.94242454320192L-112.73535308428109,524.7521338239312L-105.29142307117581,392.71045541390777Z" fill="#bfd5e8" stroke="#bfd5e8"/><path d="M-107.21355470828712,193.94242454320192L-105.29142307117581,392.71045541390777L33.52514952421188,276.380150411278Z" fill="#ccd8ea" stroke="#ccd8ea"/><path d="M33.52514952421188,276.380150411278L-105.29142307117581,392.71045541390777L57.399822575971484,356.6247081756592Z" fill="#bed1e5" stroke="#bed1e5"/><path d="M33.52514952421188,276.380150411278L57.399822575971484,356.6247081756592L205.84045520983636,182.52064621075988Z" fill="#c2d1e6" stroke="#c2d1e6"/><path d="M205.84045520983636,182.52064621075988L57.399822575971484,356.6247081756592L203.68067348375916,431.6139708738774Z" fill="#b4c9e1" stroke="#b4c9e1"/><path d="M205.84045520983636,182.52064621075988L203.68067348375916,431.6139708738774L346.88884729519486,433.601756086573Z" fill="#a8c1dd" stroke="#a8c1dd"/><path d="M205.84045520983636,182.52064621075988L346.88884729519486,433.601756086573L420.78231752850115,281.8189953826368Z" fill="#abc1dd" stroke="#abc1dd"/><path d="M420.78231752850115,281.8189953826368L346.88884729519486,433.601756086573L471.3193923700601,374.60336359217763Z" fill="#95b8d7" stroke="#95b8d7"/><path d="M420.78231752850115,281.8189953826368L471.3193923700601,374.60336359217763L542.9914619028568,190.89443285018206Z" fill="#9cbbd9" stroke="#9cbbd9"/><path d="M542.9914619028568,190.89443285018206L471.3193923700601,374.60336359217763L616.1897955927998,326.4203656744212Z" fill="#92b6d6" stroke="#92b6d6"/><path d="M542.9914619028568,190.89443285018206L616.1897955927998,326.4203656744212L618.518413938582,246.69458764605224Z" fill="#94b7d7" stroke="#94b7d7"/><path d="M618.518413938582,246.69458764605224L616.1897955927998,326.4203656744212L766.5807340946048,262.77741570957005Z" fill="#87b2d4" stroke="#87b2d4"/><path d="M766.5807340946048,262.77741570957005L616.1897955927998,326.4203656744212L768.2573651801795,408.0421788711101Z" fill="#78abd0" stroke="#78abd0"/><path d="M766.5807340946048,262.77741570957005L768.2573651801795,408.0421788711101L1021.0779085569084,319.75242706015706Z" fill="#69a5cd" stroke="#69a5cd"/><path d="M766.5807340946048,262.77741570957005L1021.0779085569084,319.75242706015706L1025.2280793897808,182.3142607603222Z" fill="#6da7ce" stroke="#6da7ce"/><path d="M1025.2280793897808,182.3142607603222L1021.0779085569084,319.75242706015706L1129.2778663057834,269.73066609352827Z" fill="#649fc6" stroke="#649fc6"/><path d="M1129.2778663057834,269.73066609352827L1021.0779085569084,319.75242706015706L1160.3264226112515,384.69694434665143Z" fill="#5596bf" stroke="#5596bf"/><path d="M1129.2778663057834,269.73066609352827L1160.3264226112515,384.69694434665143L1306.0102431289852,240.03390940837562Z" fill="#5490b9" stroke="#5490b9"/><path d="M1306.0102431289852,240.03390940837562L1160.3264226112515,384.69694434665143L1226.2553423456848,412.6015165820718Z" fill="#498ab5" stroke="#498ab5"/><path d="M1306.0102431289852,240.03390940837562L1226.2553423456848,412.6015165820718L1385.8751852810383,413.24500828050077Z" fill="#4383ae" stroke="#4383ae"/><path d="M1306.0102431289852,240.03390940837562L1385.8751852810383,413.24500828050077L1467.6351452060044,262.07049773074687Z" fill="#4c81ab" stroke="#4c81ab"/><path d="M1467.6351452060044,262.07049773074687L1385.8751852810383,413.24500828050077L1522.6188817061484,331.2607186753303Z" fill="#4679a4" stroke="#4679a4"/><path d="M1467.6351452060044,262.07049773074687L1522.6188817061484,331.2607186753303L1578.2832215633243,243.80514208227396Z" fill="#5078a1" stroke="#5078a1"/><path d="M1578.2832215633243,243.80514208227396L1522.6188817061484,331.2607186753303L1688.3732095453888,478.514562221244Z" fill="#436d98" stroke="#436d98"/><path d="M1578.2832215633243,243.80514208227396L1688.3732095453888,478.514562221244L1781.8224081303924,434.9474083352834Z" fill="#3d6390" stroke="#3d6390"/><path d="M1578.2832215633243,243.80514208227396L1781.8224081303924,434.9474083352834L1685.1614883821458,169.04666217975318Z" fill="#506c95" stroke="#506c95"/><path d="M-105.29142307117581,392.71045541390777L-112.73535308428109,524.7521338239312L57.399822575971484,356.6247081756592Z" fill="#b3cde4" stroke="#b3cde4"/><path d="M57.399822575971484,356.6247081756592L-112.73535308428109,524.7521338239312L90.80268817953765,571.6411193646491Z" fill="#a2c5df" stroke="#a2c5df"/><path d="M57.399822575971484,356.6247081756592L90.80268817953765,571.6411193646491L203.68067348375916,431.6139708738774Z" fill="#a0c1dc" stroke="#a0c1dc"/><path d="M203.68067348375916,431.6139708738774L90.80268817953765,571.6411193646491L270.2754551824182,578.5623170994222Z" fill="#8cb8d7" stroke="#8cb8d7"/><path d="M203.68067348375916,431.6139708738774L270.2754551824182,578.5623170994222L346.88884729519486,433.601756086573Z" fill="#8eb6d6" stroke="#8eb6d6"/><path d="M346.88884729519486,433.601756086573L270.2754551824182,578.5623170994222L422.9935588594526,553.4436873905361Z" fill="#80afd2" stroke="#80afd2"/><path d="M346.88884729519486,433.601756086573L422.9935588594526,553.4436873905361L471.3193923700601,374.60336359217763Z" fill="#84b1d3" stroke="#84b1d3"/><path d="M471.3193923700601,374.60336359217763L422.9935588594526,553.4436873905361L465.078611606732,574.9339916557074Z" fill="#77abd0" stroke="#77abd0"/><path d="M471.3193923700601,374.60336359217763L465.078611606732,574.9339916557074L618.1967348791659,561.3680202607065Z" fill="#6fa8ce" stroke="#6fa8ce"/><path d="M471.3193923700601,374.60336359217763L618.1967348791659,561.3680202607065L616.1897955927998,326.4203656744212Z" fill="#78abd0" stroke="#78abd0"/><path d="M616.1897955927998,326.4203656744212L618.1967348791659,561.3680202607065L768.2573651801795,408.0421788711101Z" fill="#6ba6cd" stroke="#6ba6cd"/><path d="M768.2573651801795,408.0421788711101L618.1967348791659,561.3680202607065L792.3558052908629,533.8143414538354Z" fill="#589ec8" stroke="#589ec8"/><path d="M768.2573651801795,408.0421788711101L792.3558052908629,533.8143414538354L980.1318533532321,575.9181118849665Z" fill="#4998c5" stroke="#4998c5"/><path d="M768.2573651801795,408.0421788711101L980.1318533532321,575.9181118849665L1021.0779085569084,319.75242706015706Z" fill="#4d9ac6" stroke="#4d9ac6"/><path d="M1021.0779085569084,319.75242706015706L980.1318533532321,575.9181118849665L1160.3264226112515,384.69694434665143Z" fill="#4591bf" stroke="#4591bf"/><path d="M1160.3264226112515,384.69694434665143L980.1318533532321,575.9181118849665L1087.202045051381,584.6331995073706Z" fill="#3489b9" stroke="#3489b9"/><path d="M1160.3264226112515,384.69694434665143L1087.202045051381,584.6331995073706L1215.9577079303563,477.3423358798027Z" fill="#3586b4" stroke="#3586b4"/><path d="M1160.3264226112515,384.69694434665143L1215.9577079303563,477.3423358798027L1226.2553423456848,412.6015165820718Z" fill="#3d86b3" stroke="#3d86b3"/><path d="M1226.2553423456848,412.6015165820718L1215.9577079303563,477.3423358798027L1385.8751852810383,413.24500828050077Z" fill="#3680ad" stroke="#3680ad"/><path d="M1385.8751852810383,413.24500828050077L1215.9577079303563,477.3423358798027L1398.0009688530117,584.0571201313287Z" fill="#2a77a6" stroke="#2a77a6"/><path d="M1385.8751852810383,413.24500828050077L1398.0009688530117,584.0571201313287L1572.8868867829442,553.2099986169487Z" fill="#256c9c" stroke="#256c9c"/><path d="M1385.8751852810383,413.24500828050077L1572.8868867829442,553.2099986169487L1522.6188817061484,331.2607186753303Z" fill="#346f9c" stroke="#346f9c"/><path d="M1522.6188817061484,331.2607186753303L1572.8868867829442,553.2099986169487L1688.3732095453888,478.514562221244Z" fill="#306594" stroke="#306594"/><path d="M1781.8224081303924,434.9474083352834L1688.3732095453888,478.514562221244L1693.6656922660768,632.550119496882Z" fill="#255787" stroke="#255787"/><path d="M1781.8224081303924,434.9474083352834L1693.6656922660768,632.550119496882L1688.6881381832063,880.6727732811123Z" fill="#114b7e" stroke="#114b7e"/><path d="M1781.8224081303924,434.9474083352834L1688.6881381832063,880.6727732811123L1766.6885185986757,1124.6633804775774Z" fill="#013468" stroke="#013468"/><path d="M-112.73535308428109,524.7521338239312L-82.61100087314844,1144.3763113673776L-97.26934927515686,789.7508614975959Z" fill="#80a7c2" stroke="#80a7c2"/><path d="M-112.73535308428109,524.7521338239312L-97.26934927515686,789.7508614975959L-42.0776460506022,675.6518821790814Z" fill="#8fbad5" stroke="#8fbad5"/><path d="M-112.73535308428109,524.7521338239312L-42.0776460506022,675.6518821790814L90.80268817953765,571.6411193646491Z" fill="#91bfdb" stroke="#91bfdb"/><path d="M90.80268817953765,571.6411193646491L-42.0776460506022,675.6518821790814L132.26411665789783,650.9116998687387Z" fill="#86b6d4" stroke="#86b6d4"/><path d="M90.80268817953765,571.6411193646491L132.26411665789783,650.9116998687387L270.2754551824182,578.5623170994222Z" fill="#81b4d5" stroke="#81b4d5"/><path d="M270.2754551824182,578.5623170994222L132.26411665789783,650.9116998687387L232.90419205091894,733.4621458500624Z" fill="#78aacd" stroke="#78aacd"/><path d="M270.2754551824182,578.5623170994222L232.90419205091894,733.4621458500624L428.4873241279274,674.8560309503227Z" fill="#6fa3c9" stroke="#6fa3c9"/><path d="M270.2754551824182,578.5623170994222L428.4873241279274,674.8560309503227L422.9935588594526,553.4436873905361Z" fill="#6ea8ce" stroke="#6ea8ce"/><path d="M422.9935588594526,553.4436873905361L428.4873241279274,674.8560309503227L465.078611606732,574.9339916557074Z" fill="#67a5cc" stroke="#67a5cc"/><path d="M465.078611606732,574.9339916557074L428.4873241279274,674.8560309503227L553.3933321293443,624.8085222020745Z" fill="#5fa0c8" stroke="#5fa0c8"/><path d="M465.078611606732,574.9339916557074L553.3933321293443,624.8085222020745L618.1967348791659,561.3680202607065Z" fill="#5da0ca" stroke="#5da0ca"/><path d="M618.1967348791659,561.3680202607065L553.3933321293443,624.8085222020745L685.3142480179667,718.0479447729886Z" fill="#4f97c3" stroke="#4f97c3"/><path d="M618.1967348791659,561.3680202607065L685.3142480179667,718.0479447729886L792.3558052908629,533.8143414538354Z" fill="#4998c5" stroke="#4998c5"/><path d="M792.3558052908629,533.8143414538354L685.3142480179667,718.0479447729886L828.997665848583,664.4289423152804Z" fill="#3d90bf" stroke="#3d90bf"/><path d="M792.3558052908629,533.8143414538354L828.997665848583,664.4289423152804L980.1318533532321,575.9181118849665Z" fill="#3791c1" stroke="#3791c1"/><path d="M980.1318533532321,575.9181118849665L828.997665848583,664.4289423152804L1001.3738964591175,676.7749390751123Z" fill="#2a88ba" stroke="#2a88ba"/><path d="M980.1318533532321,575.9181118849665L1001.3738964591175,676.7749390751123L1087.202045051381,584.6331995073706Z" fill="#2686b8" stroke="#2686b8"/><path d="M1087.202045051381,584.6331995073706L1001.3738964591175,676.7749390751123L1170.7214005384594,686.556480685249Z" fill="#1f7caf" stroke="#1f7caf"/><path d="M1087.202045051381,584.6331995073706L1170.7214005384594,686.556480685249L1215.9577079303563,477.3423358798027Z" fill="#227eb0" stroke="#227eb0"/><path d="M1215.9577079303563,477.3423358798027L1170.7214005384594,686.556480685249L1263.3573655318469,690.0458597391844Z" fill="#1a76a9" stroke="#1a76a9"/><path d="M1215.9577079303563,477.3423358798027L1263.3573655318469,690.0458597391844L1398.0009688530117,584.0571201313287Z" fill="#1a73a5" stroke="#1a73a5"/><path d="M1398.0009688530117,584.0571201313287L1263.3573655318469,690.0458597391844L1449.9547155573964,673.3007530588657Z" fill="#116699" stroke="#116699"/><path d="M1398.0009688530117,584.0571201313287L1449.9547155573964,673.3007530588657L1572.8868867829442,553.2099986169487Z" fill="#156496" stroke="#156496"/><path d="M1572.8868867829442,553.2099986169487L1449.9547155573964,673.3007530588657L1595.403736224398,683.3573327120394Z" fill="#125a8d" stroke="#125a8d"/><path d="M1572.8868867829442,553.2099986169487L1595.403736224398,683.3573327120394L1693.6656922660768,632.550119496882Z" fill="#145689" stroke="#145689"/><path d="M1572.8868867829442,553.2099986169487L1693.6656922660768,632.550119496882L1688.3732095453888,478.514562221244Z" fill="#1e5a8b" stroke="#1e5a8b"/><path d="M-42.0776460506022,675.6518821790814L-97.26934927515686,789.7508614975959L128.96188507787883,824.5725457649678Z" fill="#7fa9c6" stroke="#7fa9c6"/><path d="M-42.0776460506022,675.6518821790814L128.96188507787883,824.5725457649678L132.26411665789783,650.9116998687387Z" fill="#7dabc9" stroke="#7dabc9"/><path d="M132.26411665789783,650.9116998687387L128.96188507787883,824.5725457649678L232.90419205091894,733.4621458500624Z" fill="#73a3c4" stroke="#73a3c4"/><path d="M232.90419205091894,733.4621458500624L128.96188507787883,824.5725457649678L227.40205728448927,786.1790265329182Z" fill="#6d9bbe" stroke="#6d9bbe"/><path d="M232.90419205091894,733.4621458500624L227.40205728448927,786.1790265329182L317.60183413513005,882.4911566264927Z" fill="#6695b9" stroke="#6695b9"/><path d="M232.90419205091894,733.4621458500624L317.60183413513005,882.4911566264927L428.4873241279274,674.8560309503227Z" fill="#6496bc" stroke="#6496bc"/><path d="M428.4873241279274,674.8560309503227L317.60183413513005,882.4911566264927L553.6245035659522,806.6932381689548Z" fill="#558eb6" stroke="#558eb6"/><path d="M428.4873241279274,674.8560309503227L553.6245035659522,806.6932381689548L553.3933321293443,624.8085222020745Z" fill="#5494be" stroke="#5494be"/><path d="M553.3933321293443,624.8085222020745L553.6245035659522,806.6932381689548L685.3142480179667,718.0479447729886Z" fill="#498eb9" stroke="#498eb9"/><path d="M685.3142480179667,718.0479447729886L553.6245035659522,806.6932381689548L618.0056732241064,842.6185011025518Z" fill="#4084b0" stroke="#4084b0"/><path d="M685.3142480179667,718.0479447729886L618.0056732241064,842.6185011025518L807.0115737989545,793.3199460525066Z" fill="#3781af" stroke="#3781af"/><path d="M685.3142480179667,718.0479447729886L807.0115737989545,793.3199460525066L828.997665848583,664.4289423152804Z" fill="#3485b4" stroke="#3485b4"/><path d="M828.997665848583,664.4289423152804L807.0115737989545,793.3199460525066L961.4793885033578,819.1989990323782Z" fill="#267dad" stroke="#267dad"/><path d="M828.997665848583,664.4289423152804L961.4793885033578,819.1989990323782L1001.3738964591175,676.7749390751123Z" fill="#237fb1" stroke="#237fb1"/><path d="M1001.3738964591175,676.7749390751123L961.4793885033578,819.1989990323782L1066.824522698298,865.1396732032299Z" fill="#1671a3" stroke="#1671a3"/><path d="M1001.3738964591175,676.7749390751123L1066.824522698298,865.1396732032299L1170.7214005384594,686.556480685249Z" fill="#1671a4" stroke="#1671a4"/><path d="M1170.7214005384594,686.556480685249L1066.824522698298,865.1396732032299L1287.2289994452149,851.2029011920094Z" fill="#0b6295" stroke="#0b6295"/><path d="M1170.7214005384594,686.556480685249L1287.2289994452149,851.2029011920094L1263.3573655318469,690.0458597391844Z" fill="#0c6497" stroke="#0c6497"/><path d="M1263.3573655318469,690.0458597391844L1287.2289994452149,851.2029011920094L1449.9547155573964,673.3007530588657Z" fill="#085e91" stroke="#085e91"/><path d="M1449.9547155573964,673.3007530588657L1287.2289994452149,851.2029011920094L1441.458051726222,857.2891385760158Z" fill="#035285" stroke="#035285"/><path d="M1449.9547155573964,673.3007530588657L1441.458051726222,857.2891385760158L1569.8956401832402,807.4238238204271Z" fill="#044d80" stroke="#044d80"/><path d="M1449.9547155573964,673.3007530588657L1569.8956401832402,807.4238238204271L1595.403736224398,683.3573327120394Z" fill="#0a5083" stroke="#0a5083"/><path d="M1595.403736224398,683.3573327120394L1569.8956401832402,807.4238238204271L1688.6881381832063,880.6727732811123Z" fill="#034174" stroke="#034174"/><path d="M1595.403736224398,683.3573327120394L1688.6881381832063,880.6727732811123L1693.6656922660768,632.550119496882Z" fill="#094579" stroke="#094579"/><path d="M-97.26934927515686,789.7508614975959L-82.61100087314844,1144.3763113673776L-25.14734622091055,918.2368569541723Z" fill="#7e95b1" stroke="#7e95b1"/><path d="M-97.26934927515686,789.7508614975959L-25.14734622091055,918.2368569541723L128.96188507787883,824.5725457649678Z" fill="#799fbc" stroke="#799fbc"/><path d="M128.96188507787883,824.5725457649678L-25.14734622091055,918.2368569541723L127.44025859981775,1004.2590917553753Z" fill="#7291b1" stroke="#7291b1"/><path d="M128.96188507787883,824.5725457649678L127.44025859981775,1004.2590917553753L175.51095091737807,993.7589043751359Z" fill="#6d8aac" stroke="#6d8aac"/><path d="M128.96188507787883,824.5725457649678L175.51095091737807,993.7589043751359L317.60183413513005,882.4911566264927Z" fill="#688cae" stroke="#688cae"/><path d="M128.96188507787883,824.5725457649678L317.60183413513005,882.4911566264927L227.40205728448927,786.1790265329182Z" fill="#6693b6" stroke="#6693b6"/><path d="M317.60183413513005,882.4911566264927L175.51095091737807,993.7589043751359L410.5161936208606,1005.0518990401179Z" fill="#607fa4" stroke="#607fa4"/><path d="M317.60183413513005,882.4911566264927L410.5161936208606,1005.0518990401179L553.6245035659522,806.6932381689548Z" fill="#5380a8" stroke="#5380a8"/><path d="M553.6245035659522,806.6932381689548L410.5161936208606,1005.0518990401179L558.479208368808,1001.9463384523988Z" fill="#4977a1" stroke="#4977a1"/><path d="M553.6245035659522,806.6932381689548L558.479208368808,1001.9463384523988L618.0056732241064,842.6185011025518Z" fill="#417aa6" stroke="#417aa6"/><path d="M618.0056732241064,842.6185011025518L558.479208368808,1001.9463384523988L721.6820896044374,919.4781407061964Z" fill="#3b739f" stroke="#3b739f"/><path d="M618.0056732241064,842.6185011025518L721.6820896044374,919.4781407061964L807.0115737989545,793.3199460525066Z" fill="#3278a6" stroke="#3278a6"/><path d="M807.0115737989545,793.3199460525066L721.6820896044374,919.4781407061964L881.6648293007165,1034.200346013531Z" fill="#286c9c" stroke="#286c9c"/><path d="M807.0115737989545,793.3199460525066L881.6648293007165,1034.200346013531L961.4793885033578,819.1989990323782Z" fill="#1e6c9e" stroke="#1e6c9e"/><path d="M961.4793885033578,819.1989990323782L881.6648293007165,1034.200346013531L966.005430445075,1024.845085479319Z" fill="#186093" stroke="#186093"/><path d="M961.4793885033578,819.1989990323782L966.005430445075,1024.845085479319L1066.824522698298,865.1396732032299Z" fill="#136396" stroke="#136396"/><path d="M1066.824522698298,865.1396732032299L966.005430445075,1024.845085479319L1156.371027259156,982.8566619940102Z" fill="#0f588a" stroke="#0f588a"/><path d="M1066.824522698298,865.1396732032299L1156.371027259156,982.8566619940102L1287.2289994452149,851.2029011920094Z" fill="#09568a" stroke="#09568a"/><path d="M1287.2289994452149,851.2029011920094L1156.371027259156,982.8566619940102L1318.9951742626727,1030.0041334424168Z" fill="#04497c" stroke="#04497c"/><path d="M1287.2289994452149,851.2029011920094L1318.9951742626727,1030.0041334424168L1404.7601550724357,992.8023893013597Z" fill="#004275" stroke="#004275"/><path d="M1287.2289994452149,851.2029011920094L1404.7601550724357,992.8023893013597L1441.458051726222,857.2891385760158Z" fill="#004679" stroke="#004679"/><path d="M1441.458051726222,857.2891385760158L1404.7601550724357,992.8023893013597L1553.144819252193,991.712100142613Z" fill="#00396d" stroke="#00396d"/><path d="M1441.458051726222,857.2891385760158L1553.144819252193,991.712100142613L1569.8956401832402,807.4238238204271Z" fill="#003d70" stroke="#003d70"/><path d="M1569.8956401832402,807.4238238204271L1553.144819252193,991.712100142613L1688.6881381832063,880.6727732811123Z" fill="#003569" stroke="#003569"/><path d="M1688.6881381832063,880.6727732811123L1553.144819252193,991.712100142613L1714.6718386374414,1014.9463980831206Z" fill="#00295d" stroke="#00295d"/><path d="M1688.6881381832063,880.6727732811123L1714.6718386374414,1014.9463980831206L1766.6885185986757,1124.6633804775774Z" fill="#001e52" stroke="#001e52"/><path d="M-25.14734622091055,918.2368569541723L-82.61100087314844,1144.3763113673776L31.288559306412935,1103.7131612375379Z" fill="#7b86a3" stroke="#7b86a3"/><path d="M-25.14734622091055,918.2368569541723L31.288559306412935,1103.7131612375379L127.44025859981775,1004.2590917553753Z" fill="#7588a7" stroke="#7588a7"/><path d="M127.44025859981775,1004.2590917553753L31.288559306412935,1103.7131612375379L276.8091010954231,1140.842678323388Z" fill="#6d789a" stroke="#6d789a"/><path d="M127.44025859981775,1004.2590917553753L276.8091010954231,1140.842678323388L175.51095091737807,993.7589043751359Z" fill="#697a9d" stroke="#697a9d"/><path d="M175.51095091737807,993.7589043751359L276.8091010954231,1140.842678323388L410.5161936208606,1005.0518990401179Z" fill="#61759a" stroke="#61759a"/><path d="M410.5161936208606,1005.0518990401179L276.8091010954231,1140.842678323388L332.25114938803017,1182.0894820522517Z" fill="#5c6a91" stroke="#5c6a91"/><path d="M410.5161936208606,1005.0518990401179L332.25114938803017,1182.0894820522517L550.2183152642101,1153.0978045240045Z" fill="#52658e" stroke="#52658e"/><path d="M410.5161936208606,1005.0518990401179L550.2183152642101,1153.0978045240045L558.479208368808,1001.9463384523988Z" fill="#496993" stroke="#496993"/><path d="M558.479208368808,1001.9463384523988L550.2183152642101,1153.0978045240045L645.0028747133911,1153.0234787240624Z" fill="#415f8b" stroke="#415f8b"/><path d="M558.479208368808,1001.9463384523988L645.0028747133911,1153.0234787240624L721.6820896044374,919.4781407061964Z" fill="#3a6693" stroke="#3a6693"/><path d="M721.6820896044374,919.4781407061964L645.0028747133911,1153.0234787240624L847.7937661204487,1125.4600075632334Z" fill="#2f5c8b" stroke="#2f5c8b"/><path d="M721.6820896044374,919.4781407061964L847.7937661204487,1125.4600075632334L881.6648293007165,1034.200346013531Z" fill="#265d8e" stroke="#265d8e"/><path d="M881.6648293007165,1034.200346013531L847.7937661204487,1125.4600075632334L996.2593127880245,1159.2486826144159Z" fill="#1c4f82" stroke="#1c4f82"/><path d="M881.6648293007165,1034.200346013531L996.2593127880245,1159.2486826144159L966.005430445075,1024.845085479319Z" fill="#175285" stroke="#175285"/><path d="M966.005430445075,1024.845085479319L996.2593127880245,1159.2486826144159L1156.371027259156,982.8566619940102Z" fill="#114d80" stroke="#114d80"/><path d="M1156.371027259156,982.8566619940102L996.2593127880245,1159.2486826144159L1162.2176832240075,1162.6548800244927Z" fill="#0d4276" stroke="#0d4276"/><path d="M1156.371027259156,982.8566619940102L1162.2176832240075,1162.6548800244927L1270.1507285423577,1079.70168935135Z" fill="#073e72" stroke="#073e72"/><path d="M1156.371027259156,982.8566619940102L1270.1507285423577,1079.70168935135L1318.9951742626727,1030.0041334424168Z" fill="#044073" stroke="#044073"/><path d="M1318.9951742626727,1030.0041334424168L1270.1507285423577,1079.70168935135L1461.583404270932,1083.7085149157792Z" fill="#003467" stroke="#003467"/><path d="M1318.9951742626727,1030.0041334424168L1461.583404270932,1083.7085149157792L1404.7601550724357,992.8023893013597Z" fill="#003467" stroke="#003467"/><path d="M1404.7601550724357,992.8023893013597L1461.583404270932,1083.7085149157792L1553.144819252193,991.712100142613Z" fill="#002f63" stroke="#002f63"/><path d="M1553.144819252193,991.712100142613L1461.583404270932,1083.7085149157792L1631.125949313864,1071.2630196288228Z" fill="#00265a" stroke="#00265a"/><path d="M1553.144819252193,991.712100142613L1631.125949313864,1071.2630196288228L1714.6718386374414,1014.9463980831206Z" fill="#002357" stroke="#002357"/><path d="M1714.6718386374414,1014.9463980831206L1631.125949313864,1071.2630196288228L1766.6885185986757,1124.6633804775774Z" fill="#00174c" stroke="#00174c"/><path d="M-82.61100087314844,1144.3763113673776L332.25114938803017,1182.0894820522517L31.288559306412935,1103.7131612375379Z" fill="#717495" stroke="#717495"/><path d="M31.288559306412935,1103.7131612375379L332.25114938803017,1182.0894820522517L276.8091010954231,1140.842678323388Z" fill="#676d91" stroke="#676d91"/><path d="M332.25114938803017,1182.0894820522517L1162.2176832240075,1162.6548800244927L996.2593127880245,1159.2486826144159Z" fill="#254c7c" stroke="#254c7c"/><path d="M332.25114938803017,1182.0894820522517L996.2593127880245,1159.2486826144159L645.0028747133911,1153.0234787240624Z" fill="#385481" stroke="#385481"/><path d="M332.25114938803017,1182.0894820522517L645.0028747133911,1153.0234787240624L550.2183152642101,1153.0978045240045Z" fill="#495b85" stroke="#495b85"/><path d="M645.0028747133911,1153.0234787240624L996.2593127880245,1159.2486826144159L847.7937661204487,1125.4600075632334Z" fill="#254e7f" stroke="#254e7f"/><path d="M1162.2176832240075,1162.6548800244927L1766.6885185986757,1124.6633804775774L1461.583404270932,1083.7085149157792Z" fill="#002358" stroke="#002358"/><path d="M1162.2176832240075,1162.6548800244927L1461.583404270932,1083.7085149157792L1270.1507285423577,1079.70168935135Z" fill="#013266" stroke="#013266"/><path d="M1461.583404270932,1083.7085149157792L1766.6885185986757,1124.6633804775774L1631.125949313864,1071.2630196288228Z" fill="#001b4f" stroke="#001b4f"/></g></svg>