<?xml version="1.0" encoding="utf-8"?>
<!-- Generator: Adobe Illustrator 17.0.0, SVG Export Plug-In . SVG Version: 6.00 Build 0)  -->
<!DOCTYPE svg PUBLIC "-//W3C//DTD SVG 1.1//EN" "http://www.w3.org/Graphics/SVG/1.1/DTD/svg11.dtd">
<svg version="1.1" xmlns="http://www.w3.org/2000/svg" xmlns:xlink="http://www.w3.org/1999/xlink" x="0px" y="0px" width="1000px"
	 height="182.271px" viewBox="0 0 1000 182.271" enable-background="new 0 0 1000 182.271" xml:space="preserve">
<g id="Layer_1">
</g>
<g id="Layer_2_1_">
	<g id="Layer_3">
		<g id="Layer_4_1_">
			<polygon opacity="0.2" fill="#020202" enable-background="new    " points="820.223,80.535 1000,169.661 868.078,77.05 			"/>
			<polygon opacity="0.1" fill="#020202" enable-background="new    " points="1000,140.102 1000,169.661 868.078,77.05 			"/>
			<polygon opacity="0.1" fill="#FFFFFF" enable-background="new    " points="1000,140.102 950.337,66.957 900.674,74.431 			"/>
			<polygon opacity="0.1" fill="#020202" enable-background="new    " points="1000,140.102 950.337,66.957 1000,36.913 			"/>
			<polygon opacity="0.2" fill="#020202" enable-background="new    " points="1000,140.102 900.674,74.431 868.078,77.05 			"/>
		</g>
		<g id="Layer_2_2_">
			<polygon opacity="0.2" fill="#020202" enable-background="new    " points="732.397,70.96 796.093,82.349 710.504,55.854 			"/>
			<polygon opacity="0.1" fill="#020202" enable-background="new    " points="900.674,74.488 796.093,82.349 710.504,55.854 			"/>
			<polygon opacity="0.1" fill="#FFFFFF" enable-background="new    " points="900.674,74.488 857.49,39.934 710.504,55.854 			"/>
			<polygon opacity="0.2" fill="#FFFFFF" enable-background="new    " points="900.674,74.488 857.49,39.934 950.337,66.957 			"/>
		</g>
		<g id="Layer_1_3_">
			<polygon opacity="0.2" fill="#020202" enable-background="new    " points="687.513,0 710.504,55.854 811.418,0 			"/>
			<polygon opacity="0.1" fill="#020202" enable-background="new    " points="857.49,39.934 710.504,55.854 811.418,0 			"/>
			<polygon opacity="0.1" fill="#FFFFFF" enable-background="new    " points="857.49,39.934 934.951,0 811.418,0 			"/>
			<polygon opacity="0.2" fill="#FFFFFF" enable-background="new    " points="857.49,39.934 934.951,0 1000,0 			"/>
			<polygon opacity="0.04" fill="#020202" enable-background="new    " points="857.49,39.934 950.337,66.957 1000,0 			"/>
		</g>
		<polygon opacity="0.1" fill="#020202" enable-background="new    " points="687.513,0 710.504,55.854 511.323,31.647 		"/>
		<polygon opacity="0.1" fill="#FFFFFF" enable-background="new    " points="732.397,70.96 710.504,55.854 511.323,31.647 		"/>
	</g>
	<g id="Layer_1_2_">
		<g id="Layer_4">
			<polygon opacity="0.2" fill="#020202" enable-background="new    " points="0,182.271 0,156.1 116.504,101.864 			"/>
			<polygon opacity="0.1" fill="#020202" enable-background="new    " points="0,122.077 0,156.1 175.434,74.431 			"/>
			<polygon opacity="0.1" fill="#FFFFFF" enable-background="new    " points="0,122.077 43.347,46.14 175.434,74.431 			"/>
			<polygon opacity="0.1" fill="#020202" enable-background="new    " points="0,122.077 43.347,46.14 0,36.913 			"/>
			<polygon opacity="0.2" fill="#020202" enable-background="new    " points="0,122.077 175.434,74.431 175.434,74.431 			"/>
		</g>
		<g id="Layer_2">
			<polygon opacity="0.1" fill="#FFFFFF" enable-background="new    " points="175.434,74.488 251.708,39.934 511.323,31.647 			"/>
			<polygon opacity="0.2" fill="#FFFFFF" enable-background="new    " points="175.434,74.488 251.708,39.934 0,36.913 			"/>
		</g>
		<g id="Layer_1_1_">
			<polygon opacity="0.2" fill="#020202" enable-background="new    " points="687.513,0 511.323,31.647 333.083,0 			"/>
			<polygon opacity="0.1" fill="#020202" enable-background="new    " points="251.708,39.934 511.323,31.647 333.083,0 			"/>
			<polygon opacity="0.2" fill="#FFFFFF" enable-background="new    " points="251.708,39.934 333.083,0 0,0 			"/>
			<polygon opacity="0.04" fill="#020202" enable-background="new    " points="251.708,39.934 0,23.36 0,0 			"/>
			<polygon opacity="0.1" fill="#FFFFFF" enable-background="new    " points="251.708,39.934 0,23.36 0,36.913 			"/>
		</g>
	</g>
	<polygon opacity="0.2" fill="#FFFFFF" enable-background="new    " points="950.337,66.957 1000,36.913 1000,0 	"/>
</g>
<g id="Layer_3_1_">
</g>
</svg>
